<svg xmlns="http://www.w3.org/2000/svg" width="14.037" height="12.489" viewBox="0 0 14.037 12.489">
  <path id="_216514_warning_icon" data-name="216514_warning_icon" d="M15.739,12,11.517,4.963A2.738,2.738,0,0,0,9.19,3.511a2.739,2.739,0,0,0-2.327,1.45L2.641,12a2.67,2.67,0,0,0-.168,2.735A2.67,2.67,0,0,0,4.905,16h8.569a2.671,2.671,0,0,0,2.432-1.265A2.671,2.671,0,0,0,15.739,12ZM9.19,13.535A1.107,1.107,0,1,1,10.3,12.429,1.108,1.108,0,0,1,9.19,13.535Zm1.166-5.3c-.008.022-1,2.476-1,2.476a.178.178,0,0,1-.33,0L8.032,8.255a1.268,1.268,0,0,1-.092-.468,1.25,1.25,0,1,1,2.416.446Z" transform="translate(-2.171 -3.511)" fill="#cc0e0e"/>
</svg>
