<svg xmlns="http://www.w3.org/2000/svg" width="20.893" height="23.793" viewBox="0 0 20.893 23.793">
  <g id="_3289577_fast_run_running_icon" data-name="3289577_fast_run_running_icon" transform="translate(-10.2 -5)">
    <circle id="Ellipse_122" data-name="Ellipse 122" cx="2.213" cy="2.213" r="2.213" transform="translate(22.926 5)" fill="#dce20c"/>
    <path id="Path_8819" data-name="Path 8819" d="M30.507,22.553a1.1,1.1,0,0,0-1.494.47l-.968,1.826-4.261-2.684A1.023,1.023,0,0,0,23.2,22H18.5a1.086,1.086,0,0,0-.968.581l-1.8,3.32a1.1,1.1,0,0,0,.443,1.494,1.241,1.241,0,0,0,.526.138,1.118,1.118,0,0,0,.968-.581l1.494-2.739H20.8l-4.9,9.13H11.307a1.107,1.107,0,1,0,0,2.213h5.257a1.086,1.086,0,0,0,.968-.581l1.937-3.569,3.182,2.96L22.4,39.928a1.071,1.071,0,0,0,1.024,1.162h.055a1.118,1.118,0,0,0,1.107-1.051l.277-6.087a1.024,1.024,0,0,0-.36-.858L21.82,30.6l2.822-5.257,3.209,2.02a1.1,1.1,0,0,0,.885.138,1.074,1.074,0,0,0,.692-.553l1.522-2.9A1.08,1.08,0,0,0,30.507,22.553Z" transform="translate(0 -12.297)" fill="#dce20c"/>
  </g>
</svg>
