<svg xmlns="http://www.w3.org/2000/svg" width="75.733" height="75.736" viewBox="0 0 75.733 75.736">
  <g id="_353411_circle_eye_icon_2_" data-name="353411_circle_eye_icon (2)" transform="translate(-7.174 -7.173)">
    <path id="Path_13722" data-name="Path 13722" d="M45.041,7.173A37.868,37.868,0,1,0,82.907,45.041,37.911,37.911,0,0,0,45.041,7.173Zm0,54.744C27.347,61.917,17.807,45.4,17.807,45.4s9.541-16.516,27.234-16.516S72.276,45.4,72.276,45.4,62.736,61.917,45.041,61.917Z" transform="translate(0 0)" fill="#529ae4" fill-rule="evenodd"/>
    <path id="Path_13723" data-name="Path 13723" d="M36.849,23.005A14.081,14.081,0,1,0,50.931,37.086,14.1,14.1,0,0,0,36.849,23.005Zm0,23.587a9.5,9.5,0,1,1,9.506-9.5A9.516,9.516,0,0,1,36.849,46.592Z" transform="translate(8.191 8.316)" fill="#032f55" fill-rule="evenodd"/>
    <path id="Path_13724" data-name="Path 13724" d="M37.864,35.173a3.389,3.389,0,0,1-.546-6.734,6.778,6.778,0,0,0-2.958-.7,6.938,6.938,0,1,0,6.653,5.276A3.385,3.385,0,0,1,37.864,35.173Z" transform="translate(10.68 10.805)" fill="#032f55" fill-rule="evenodd"/>
  </g>
</svg>
