<svg xmlns="http://www.w3.org/2000/svg" width="75.733" height="75.733" viewBox="0 0 75.733 75.733">
  <g id="_6646376_dart_essentials_goal_mission_success_icon_6_" data-name="6646376_dart_essentials_goal_mission_success_icon (6)" transform="translate(-2 -0.996)">
    <path id="Path_13719" data-name="Path 13719" d="M56.517,13.018a2.284,2.284,0,0,0-2.35-1.567H46.334V3.618a2.284,2.284,0,0,0-1.567-2.35,2.384,2.384,0,0,0-2.872.522L31.45,12.234a2.37,2.37,0,0,0-.783,1.828v9.4L15.783,38.346a2.524,2.524,0,0,0,0,3.656,2.821,2.821,0,0,0,1.828.783A2.821,2.821,0,0,0,19.439,42L34.322,27.118h9.4a2.37,2.37,0,0,0,1.828-.783L55.995,15.89A2.384,2.384,0,0,0,56.517,13.018Z" transform="translate(20.945 0)" fill="#032f55"/>
    <path id="Path_13720" data-name="Path 13720" d="M29.539,29.539a7.111,7.111,0,0,1-5.483,2.35,7.111,7.111,0,0,1-5.483-2.35,7.571,7.571,0,0,1,0-10.967l7.311-7.311A4.443,4.443,0,0,0,24.056,11,12.929,12.929,0,0,0,11,24.056,12.929,12.929,0,0,0,24.056,37.111,12.929,12.929,0,0,0,37.111,24.056a4.444,4.444,0,0,0-.261-1.828Z" transform="translate(14.5 16.118)" fill="#032f55"/>
    <path id="Path_13721" data-name="Path 13721" d="M70.15,28.372a7.111,7.111,0,0,1-5.483,2.35H57.356L55.528,32.55a15.319,15.319,0,0,1,1.044,6.006A18.278,18.278,0,1,1,38.295,20.278,22.243,22.243,0,0,1,44.3,21.322l2.089-1.567V12.445a7.111,7.111,0,0,1,2.35-5.483L51.35,4.35A35.817,35.817,0,0,0,38.556,2,36.556,36.556,0,1,0,75.112,38.556a35.817,35.817,0,0,0-2.35-12.795Z" transform="translate(0 1.618)" fill="#529ae4"/>
  </g>
</svg>
