<svg xmlns="http://www.w3.org/2000/svg" width="12" height="12" viewBox="0 0 12 12">
  <path id="_8665469_flag_location_country_icon" data-name="8665469_flag_location_country_icon" d="M1.5,11.625A.377.377,0,0,1,1.125,12H.375A.377.377,0,0,1,0,11.625V.75a.75.75,0,0,1,1.5,0ZM11.163,0a1.1,1.1,0,0,0-.453.1A6.063,6.063,0,0,1,8.183.754C6.778.754,5.961.007,4.342.007A7.238,7.238,0,0,0,2.25.369V8.584a6.647,6.647,0,0,1,1.989-.33C5.964,8.254,7.166,9,8.893,9a6.945,6.945,0,0,0,2.6-.541.724.724,0,0,0,.5-.674V.72A.755.755,0,0,0,11.163,0Z" fill="#707070"/>
</svg>
