<svg id="_9004724_target_goal_aim_focus_icon" data-name="9004724_target_goal_aim_focus_icon" xmlns="http://www.w3.org/2000/svg" width="77.174" height="77.174" viewBox="0 0 77.174 77.174">
  <circle id="Ellipse_223" data-name="Ellipse 223" cx="28" cy="28" r="28" transform="translate(10.587 10.587)" fill="#529ae4"/>
  <circle id="Ellipse_224" data-name="Ellipse 224" cx="6" cy="6" r="6" transform="translate(32.587 32.587)" fill="#f8f8f9"/>
  <path id="Path_13725" data-name="Path 13725" d="M14.216,19.293A3.216,3.216,0,0,1,11,16.078V3.216a3.216,3.216,0,1,1,6.431,0V16.078A3.216,3.216,0,0,1,14.216,19.293Z" transform="translate(24.371)" fill="#032f55"/>
  <path id="Path_13726" data-name="Path 13726" d="M16.078,17.431H3.216a3.216,3.216,0,1,1,0-6.431H16.078a3.216,3.216,0,1,1,0,6.431Z" transform="translate(0 24.371)" fill="#032f55"/>
  <path id="Path_13727" data-name="Path 13727" d="M14.216,37.293A3.216,3.216,0,0,1,11,34.078V21.216a3.216,3.216,0,0,1,6.431,0V34.078A3.216,3.216,0,0,1,14.216,37.293Z" transform="translate(24.371 39.88)" fill="#032f55"/>
  <path id="Path_13728" data-name="Path 13728" d="M34.078,17.431H21.216a3.216,3.216,0,0,1,0-6.431H34.078a3.216,3.216,0,1,1,0,6.431Z" transform="translate(39.88 24.371)" fill="#032f55"/>
</svg>
