<svg xmlns="http://www.w3.org/2000/svg" width="12" height="10" viewBox="0 0 12 10">
  <path id="_9055182_bxs_city_icon" data-name="9055182_bxs_city_icon" d="M13.4,4.222H11V2.556A.579.579,0,0,0,10.4,2H5.6a.579.579,0,0,0-.6.556V6.444H2.6A.579.579,0,0,0,2,7v4.444A.579.579,0,0,0,2.6,12H13.4a.579.579,0,0,0,.6-.556V4.778A.579.579,0,0,0,13.4,4.222Zm-9,6.667H3.2V9.778H4.4Zm0-2.222H3.2V7.556H4.4Zm3,2.222H6.2V9.778H7.4Zm0-2.222H6.2V7.556H7.4Zm0-2.222H6.2V5.333H7.4Zm0-2.222H6.2V3.111H7.4Zm2.4,6.667H8.6V9.778H9.8Zm0-2.222H8.6V7.556H9.8Zm0-2.222H8.6V5.333H9.8Zm0-2.222H8.6V3.111H9.8Zm3,6.667H11.6V9.778h1.2Zm0-2.222H11.6V7.556h1.2Zm0-2.222H11.6V5.333h1.2Z" transform="translate(-2 -2)" fill="#707070"/>
</svg>
