<svg xmlns="http://www.w3.org/2000/svg" width="1601.336" height="264.37" viewBox="0 0 1601.336 264.37">
  <g id="Group_1875" data-name="Group 1875" transform="translate(0.435 -1882.261)">
    <g id="Group_1873" data-name="Group 1873">
      <path id="Path_8298" data-name="Path 8298" d="M395,1970H949.476" transform="translate(225.524 39.5)" fill="none" stroke="#529ae4" stroke-width="1" stroke-dasharray="4"/>
      <path id="Path_8299" data-name="Path 8299" d="M395,1970H589.58" transform="translate(780.42 39.5)" fill="none" stroke="#529ae4" stroke-width="1" stroke-dasharray="4"/>
      <path id="Path_8309" data-name="Path 8309" d="M1374.749,1983s60.64-18.389,118.286-50.073,112.3-76.665,112.3-76.665" transform="translate(-4.749 27)" fill="none" stroke="#529ae4" stroke-width="1" stroke-dasharray="4"/>
      <g id="Group_1664" data-name="Group 1664">
        <path id="Path_8311" data-name="Path 8311" d="M1564.116,1861.243l35.669-4.981-13.372,33.9-1.529-21.787Z" transform="translate(0.214 26)" fill="#529ae4"/>
        <path id="Path_8313" data-name="Path 8313" d="M1564.116,1861.243l35.669-4.981-13.372,33.9-1.529-21.787Z" transform="translate(-17.62 39.952)" fill="#529ae4"/>
      </g>
    </g>
    <g id="Group_1874" data-name="Group 1874" transform="translate(0 -10)">
      <path id="Path_8297" data-name="Path 8297" d="M395,1970H589.58" transform="translate(30 49.5)" fill="none" stroke="#529ae4" stroke-width="1" stroke-dasharray="4"/>
      <path id="Path_1232" data-name="Path 1232" d="M395,1970H589.58" transform="translate(-165 49.5)" fill="none" stroke="#529ae4" stroke-width="1" stroke-dasharray="4"/>
      <path id="Path_8310" data-name="Path 8310" d="M230,1991.774s-80.478,7.468-137.978,41.62S0,2128.385,0,2128.385" transform="translate(0 28)" fill="none" stroke="#529ae4" stroke-width="1" stroke-dasharray="4"/>
    </g>
  </g>
</svg>
