<svg xmlns="http://www.w3.org/2000/svg" width="378.492" height="359.452" viewBox="0 0 378.492 359.452">
  <g id="Calendar-amico" transform="translate(-44.196 -49.401)">
    <g id="freepik--Floor--inject-71" transform="translate(62.753 228.994)">
      <path id="freepik--SUELO--inject-71" d="M117.068,398.057c70.283,35.112,184.233,35.112,254.516,0s70.275-92.037,0-127.177-184.233-35.121-254.516,0S46.793,362.936,117.068,398.057Z" transform="translate(-64.359 -244.532)" fill="#ebebeb" opacity="0.5"/>
    </g>
    <g id="freepik--Shadows--inject-71" transform="translate(220.336 268.274)">
      <ellipse id="freepik--Shadow--inject-71" cx="50.915" cy="24.27" rx="50.915" ry="24.27" transform="translate(85.544 0)" fill="#e0e0e0"/>
      <path id="freepik--shadow--inject-71-2" data-name="freepik--shadow--inject-71" d="M295.036,416.1c-13.6,6.489-35.655,6.489-49.258,0s-13.6-16.99,0-23.479,35.655-6.443,49.258,0S308.675,409.62,295.036,416.1Z" transform="translate(-235.575 -295.217)" fill="#e0e0e0"/>
    </g>
    <g id="freepik--Plants--inject-71" transform="translate(44.196 226.023)">
      <g id="freepik--plants--inject-71-2" data-name="freepik--plants--inject-71" transform="translate(0 0)">
        <path id="Path_8893" data-name="Path 8893" d="M98.524,321.639l7.483-4.317s3.948-17.607-1.933-39.972S81.231,238.263,72.386,241.77s-8.615,10.124-3.737,16.834c4.05,5.522,17.183,18.96,23.5,34.44a85.2,85.2,0,0,1,6.378,28.6Z" transform="translate(-45.875 -241.304)" fill="#529ae4"/>
        <path id="Path_8894" data-name="Path 8894" d="M98.524,321.639l7.483-4.317s3.948-17.607-1.933-39.972S81.231,238.263,72.386,241.77s-8.615,10.124-3.737,16.834c4.05,5.522,17.183,18.96,23.5,34.44a85.2,85.2,0,0,1,6.378,28.6Z" transform="translate(-45.875 -241.304)" opacity="0.1"/>
        <path id="Path_8895" data-name="Path 8895" d="M103.237,320.171h-.064a.46.46,0,0,1-.387-.515c5.108-36.815-17.708-66.58-28.09-72.792a.46.46,0,1,1,.469-.782c10.538,6.3,33.7,36.456,28.531,73.7a.469.469,0,0,1-.46.387Z" transform="translate(-46.602 -241.676)" fill="#fff"/>
        <path id="Path_8896" data-name="Path 8896" d="M96.845,324.086l-11.21,6.443a21.372,21.372,0,0,0-7.483-2.154c-4.768-.6-7.943-5.2-7.473-8.633.313-2.319,1.058-4.961.7-7.308-.313-2.1-2.347-3.985-4.243-4.721A15.647,15.647,0,0,0,62.147,307c-2.7-.129-5.522-.433-7.8-1.841s-3.948-4.224-3.212-6.829a9.2,9.2,0,0,1,2.347-3.543,11.285,11.285,0,0,0,2.494-3.461c.994-2.6-.764-4.252-2.853-5.458-7.363-4.234-10.676-7.575-8.026-10.777s9.931-4.6,17.4-.681,13.658-.285,18.582.543c7.713,1.289,8.164,6.737,7.207,11.468s8.587,6.746,10.952,12.425C101.014,302.973,102.468,316.52,96.845,324.086Z" transform="translate(-44.196 -243.75)" fill="#529ae4"/>
        <path id="Path_8897" data-name="Path 8897" d="M93.586,326.943a.46.46,0,0,1-.46-.442c-.92-26.277-34.6-49.194-42.54-50.51a.46.46,0,0,1-.387-.525.469.469,0,0,1,.534-.377c8.366,1.381,42.383,24.123,43.313,51.375a.46.46,0,0,1-.442.479Z" transform="translate(-44.674 -243.994)" fill="#fff"/>
        <path id="Path_8898" data-name="Path 8898" d="M251.571,380.847c-.368-4.6-3.921-12.462-9.2-18.058s-13.677-8.283-18.868-6.038c-4.832,2.1-3.764,8.578,2.614,12.416s15.876,8.532,19.135,15.794l6.3,8.716Z" transform="translate(-58.234 -250.434)" fill="#529ae4"/>
        <path id="Path_8899" data-name="Path 8899" d="M251.571,380.847c-.368-4.6-3.921-12.462-9.2-18.058s-13.677-8.283-18.868-6.038c-4.832,2.1-3.764,8.578,2.614,12.416s15.876,8.532,19.135,15.794l6.3,8.716Z" transform="translate(-58.234 -250.434)" opacity="0.1"/>
        <path id="Path_8900" data-name="Path 8900" d="M251.955,389.483h.092a.626.626,0,0,0,.534-.709c-2.292-17.054-19.622-28.918-26.516-30.225a.628.628,0,1,0-.239,1.233c6.443,1.224,23.322,12.959,25.5,29.157A.635.635,0,0,0,251.955,389.483Z" transform="translate(-58.618 -250.639)" fill="#fff"/>
        <path id="Path_8901" data-name="Path 8901" d="M251.287,401.607c-.92-2.531-4.455-6.553-9.857-9.664-5.973-3.451-13.272-4.675-15.168-7.575-2.273-3.5.525-7.188,6.387-6.94s16.732,7.363,19.328,19.171Z" transform="translate(-58.631 -252.142)" fill="#529ae4"/>
        <path id="Path_8902" data-name="Path 8902" d="M252.04,399.363h.12a.626.626,0,0,0,.5-.745c-1.74-8.744-14.413-17.8-22.6-18.177a.663.663,0,0,0-.663.6.644.644,0,0,0,.607.663c7.6.35,19.816,9.066,21.426,17.165a.626.626,0,0,0,.617.5Z" transform="translate(-58.943 -252.383)" fill="#fff"/>
      </g>
    </g>
    <g id="freepik--Calendar--inject-71" transform="translate(87.373 49.401)">
      <g id="freepik--calendar--inject-71-2" data-name="freepik--calendar--inject-71">
        <path id="Path_8903" data-name="Path 8903" d="M92.536,313.18a3.221,3.221,0,0,1-1.362-3.323l32.636-144.443a5.991,5.991,0,0,1,2.494-3.4l194.2-112.1a4.271,4.271,0,0,1,3.866-.064,3.221,3.221,0,0,1,1.335,3.3L293.058,197.6a5.973,5.973,0,0,1-2.5,3.4L96.4,313.1a4.271,4.271,0,0,1-3.866.083Z" transform="translate(-91.109 -49.403)" fill="#f0f0f0"/>
        <path id="Path_8904" data-name="Path 8904" d="M127.871,167.754l-32.636,144.5c-.276,1.233.387,1.73,1.491,1.1l194.2-112.1a5.973,5.973,0,0,0,2.5-3.4l32.6-144.489c.276-1.243-.387-1.73-1.491-1.1l-194.2,112.1a6,6,0,0,0-2.467,3.387Z" transform="translate(-91.432 -49.607)" fill="#e6e6e6"/>
        <path id="Path_8905" data-name="Path 8905" d="M331.288,52.173a4.27,4.27,0,0,0-3.866.074l-194.2,112.1a3.682,3.682,0,0,0-1.666,3.424l25.559,178.911a5.182,5.182,0,0,0,2.2,3.359,4.224,4.224,0,0,0,3.856-.074L357.335,237.895A3.681,3.681,0,0,0,359,234.462L333.525,55.532a5.172,5.172,0,0,0-2.237-3.359Z" transform="translate(-94.328 -49.588)" fill="#f0f0f0"/>
        <path id="Path_8906" data-name="Path 8906" d="M135.659,170.139,161.181,349.05a1.445,1.445,0,0,0,2.319,1.123L357.661,238.1a3.681,3.681,0,0,0,1.666-3.433L333.851,55.737a1.445,1.445,0,0,0-2.319-1.132l-194.2,112.1A3.682,3.682,0,0,0,135.659,170.139Z" transform="translate(-94.655 -49.792)" fill="#fafafa"/>
        <path id="Path_8907" data-name="Path 8907" d="M95.43,331.406l49.7-28.706,1.445,10.4-22.788,13.161s-6.074,2.154-8.486,2.761S95.43,331.406,95.43,331.406Z" transform="translate(-91.453 -69.571)" fill="#e0e0e0"/>
        <path id="Path_8908" data-name="Path 8908" d="M149.058,314.01l7.455,52.277L126.27,327.171Z" transform="translate(-93.908 -70.472)" fill="#e6e6e6"/>
        <path id="Path_8909" data-name="Path 8909" d="M152.886,369.158l-27.1-35.2a4.344,4.344,0,0,0-3.682-1.5l-25.347,3.682a7.465,7.465,0,0,1-4.151-.755c-1.031-.589-.856-1.27.387-1.509l29.13-5.605a4,4,0,0,1,3.681,1.408l30.86,41.6c.755,1.022.534,1.362-.5.764a13.373,13.373,0,0,1-3.276-2.881Z" transform="translate(-91.174 -71.604)" fill="#e0e0e0"/>
        <path id="Path_8910" data-name="Path 8910" d="M328.176,52.447a3.157,3.157,0,0,0-1.417-2.614,4.307,4.307,0,0,0-3.866.074l-194.2,112.1a5.467,5.467,0,0,0-1.519,1.417,5.614,5.614,0,0,0-.985,1.979l-4.6,20.4,3.737,2.144,198.2-114.4,4.6-20.4a3.312,3.312,0,0,0,.055-.709Z" transform="translate(-93.536 -49.402)" fill="#529ae4"/>
        <path id="Path_8911" data-name="Path 8911" d="M328.455,53.361c.276-1.243-.387-1.73-1.491-1.1l-194.2,112.1a6,6,0,0,0-2.494,3.387l-4.6,20.4,198.184-114.4Z" transform="translate(-93.861 -49.607)" opacity="0.2"/>
        <path id="Path_8912" data-name="Path 8912" d="M130.954,175.443a5.393,5.393,0,0,0-.976,1.97l-4.6,20.4-3.737-2.154,4.6-20.4a5.615,5.615,0,0,1,.985-1.979Z" transform="translate(-93.54 -59.266)" opacity="0.1"/>
        <path id="Path_8913" data-name="Path 8913" d="M328.66,52.437c-.092-.69-.69-.92-1.546-.377l-194.2,112.092a5.256,5.256,0,0,0-1.519,1.427l-3.737-2.163A5.467,5.467,0,0,1,129.179,162l194.2-112.1a4.307,4.307,0,0,1,3.866-.074A3.157,3.157,0,0,1,328.66,52.437Z" transform="translate(-94.019 -49.401)" fill="#fff" opacity="0.4"/>
        <path id="Path_8914" data-name="Path 8914" d="M333.723,57.244h0l-.193-1.712a2.4,2.4,0,0,0-.055-.249.229.229,0,0,0,0-.074h0a5.219,5.219,0,0,0-2.126-3.037,4.271,4.271,0,0,0-3.866.074l-194.2,112.1a3.451,3.451,0,0,0-1.335,1.528h0a3.461,3.461,0,0,0-.331,1.9L135.3,193.4l3.737,2.163L337.146,81.174Z" transform="translate(-94.333 -49.588)" fill="#529ae4"/>
        <path id="Path_8915" data-name="Path 8915" d="M139,205.431l-3.737-2.163-3.681-25.632a3.46,3.46,0,0,1,.331-1.9l3.746,2.154a3.4,3.4,0,0,0-.341,1.9Z" transform="translate(-94.329 -59.462)" opacity="0.1"/>
        <path id="Path_8916" data-name="Path 8916" d="M333.451,55.21a1.417,1.417,0,0,0-2.246-.81l-194.2,112.1a3.4,3.4,0,0,0-1.335,1.528L132,165.876a3.525,3.525,0,0,1,1.335-1.537l194.2-112.092a4.27,4.27,0,0,1,3.866-.074,5.182,5.182,0,0,1,2.052,3.037Z" transform="translate(-94.365 -49.588)" fill="#fff" opacity="0.4"/>
        <path id="Path_8917" data-name="Path 8917" d="M193.709,340.831l-2.319-16.3a1.16,1.16,0,0,0-1.841-.92l-16.926,9.774a2.927,2.927,0,0,0-1.335,2.761l2.31,16.337a1.15,1.15,0,0,0,1.841.92l16.926-9.774A2.917,2.917,0,0,0,193.709,340.831Z" transform="translate(-97.492 -71.219)" fill="#529ae4"/>
        <path id="Path_8918" data-name="Path 8918" d="M222.148,324.431,219.82,308.14a1.151,1.151,0,0,0-1.841-.92l-16.926,9.765a2.936,2.936,0,0,0-1.335,2.761l2.329,16.3a1.15,1.15,0,0,0,1.841.92l16.926-9.774a2.918,2.918,0,0,0,1.335-2.761Z" transform="translate(-99.756 -69.913)" fill="#ebebeb"/>
        <path id="Path_8919" data-name="Path 8919" d="M250.587,308.031l-2.329-16.291a1.15,1.15,0,0,0-1.841-.92L229.483,300.6a2.936,2.936,0,0,0-1.335,2.761l2.329,16.3a1.151,1.151,0,0,0,1.841.92l16.926-9.774A2.918,2.918,0,0,0,250.587,308.031Z" transform="translate(-102.02 -68.607)" fill="#ebebeb"/>
        <path id="Path_8920" data-name="Path 8920" d="M279.052,291.64l-2.328-16.3a1.15,1.15,0,0,0-1.841-.92l-17,9.793a2.918,2.918,0,0,0-1.335,2.761l2.329,16.291a1.15,1.15,0,0,0,1.841.92l16.926-9.765a2.936,2.936,0,0,0,1.408-2.78Z" transform="translate(-104.281 -67.301)" fill="#ebebeb"/>
        <path id="Path_8921" data-name="Path 8921" d="M307.468,275.237,305.14,258.9a1.15,1.15,0,0,0-1.841-.92l-16.926,9.774a2.918,2.918,0,0,0-1.335,2.761l2.329,16.29a1.151,1.151,0,0,0,1.841.92l16.962-9.747A2.936,2.936,0,0,0,307.468,275.237Z" transform="translate(-106.55 -65.992)" fill="#ebebeb"/>
        <path id="Path_8922" data-name="Path 8922" d="M335.908,258.84l-2.329-16.3a1.15,1.15,0,0,0-1.841-.92l-16.926,9.774a2.918,2.918,0,0,0-1.335,2.761l2.319,16.327a1.15,1.15,0,0,0,1.841.92l16.926-9.774a2.927,2.927,0,0,0,1.344-2.789Z" transform="translate(-108.814 -64.689)" fill="#ebebeb"/>
        <path id="Path_8923" data-name="Path 8923" d="M364.348,242.49l-2.329-16.3a1.151,1.151,0,0,0-1.841-.92l-16.926,9.774a2.927,2.927,0,0,0-1.335,2.761l2.319,16.3a1.16,1.16,0,0,0,1.841.92L363,245.251a2.927,2.927,0,0,0,1.344-2.761Z" transform="translate(-111.079 -63.387)" fill="#ebebeb"/>
        <path id="Path_8924" data-name="Path 8924" d="M188.768,306.183,186.44,289.9a1.16,1.16,0,0,0-1.841-.92l-16.926,9.774a2.927,2.927,0,0,0-1.335,2.761l2.319,16.3a1.16,1.16,0,0,0,1.841.92l16.926-9.774A2.964,2.964,0,0,0,188.768,306.183Z" transform="translate(-97.098 -68.461)" fill="#529ae4"/>
        <path id="Path_8925" data-name="Path 8925" d="M217.208,289.781l-2.329-16.3a1.16,1.16,0,0,0-1.841-.92l-16.926,9.774a2.927,2.927,0,0,0-1.335,2.761l2.319,16.3a1.16,1.16,0,0,0,1.841.92l16.926-9.774a2.964,2.964,0,0,0,1.344-2.761Z" transform="translate(-99.362 -67.154)" fill="#ebebeb"/>
        <path id="Path_8926" data-name="Path 8926" d="M245.648,273.381l-2.329-16.3a1.16,1.16,0,0,0-1.841-.92l-16.926,9.774a2.927,2.927,0,0,0-1.335,2.761l2.319,16.3a1.16,1.16,0,0,0,1.841.92l16.926-9.774A2.964,2.964,0,0,0,245.648,273.381Z" transform="translate(-101.627 -65.848)" fill="#ebebeb"/>
        <path id="Path_8927" data-name="Path 8927" d="M274.06,256.981l-2.329-16.3a1.16,1.16,0,0,0-1.841-.92l-16.907,9.793a2.936,2.936,0,0,0-1.335,2.761l2.319,16.3a1.16,1.16,0,0,0,1.841.92l16.926-9.774a2.954,2.954,0,0,0,1.325-2.78Z" transform="translate(-103.891 -64.542)" fill="#ebebeb"/>
        <path id="Path_8928" data-name="Path 8928" d="M302.527,240.581,300.2,224.29a1.15,1.15,0,0,0-1.841-.92l-16.935,9.765a2.936,2.936,0,0,0-1.335,2.761l2.319,16.3a1.16,1.16,0,0,0,1.841.92l16.926-9.793a2.954,2.954,0,0,0,1.353-2.743Z" transform="translate(-106.156 -63.236)" fill="#ebebeb"/>
        <path id="Path_8929" data-name="Path 8929" d="M330.969,224.182,328.64,207.9a1.15,1.15,0,0,0-1.841-.92l-16.916,9.784a2.918,2.918,0,0,0-1.335,2.761l2.319,16.291a1.16,1.16,0,0,0,1.841.92l16.926-9.774A2.954,2.954,0,0,0,330.969,224.182Z" transform="translate(-108.422 -61.931)" fill="#ebebeb"/>
        <path id="Path_8930" data-name="Path 8930" d="M359.408,207.79l-2.329-16.3a1.15,1.15,0,0,0-1.841-.92L338.3,200.344a2.927,2.927,0,0,0-1.325,2.761L339.3,219.4a1.16,1.16,0,0,0,1.841.92l16.926-9.765A2.973,2.973,0,0,0,359.408,207.79Z" transform="translate(-110.686 -60.624)" fill="#ebebeb"/>
        <path id="Path_8931" data-name="Path 8931" d="M183.817,271.491l-2.319-16.3a1.16,1.16,0,0,0-1.841-.92l-16.944,9.857a2.954,2.954,0,0,0-1.335,2.761l2.329,16.291a1.15,1.15,0,0,0,1.841.92l16.935-9.848A2.936,2.936,0,0,0,183.817,271.491Z" transform="translate(-96.703 -65.697)" fill="#529ae4"/>
        <path id="Path_8932" data-name="Path 8932" d="M212.259,255.131l-2.319-16.3a1.16,1.16,0,0,0-1.841-.92l-16.926,9.774a2.954,2.954,0,0,0-1.335,2.761l2.329,16.3a1.16,1.16,0,0,0,1.841.92l16.926-9.774a2.927,2.927,0,0,0,1.325-2.761Z" transform="translate(-98.969 -64.395)" fill="#ebebeb"/>
        <path id="Path_8933" data-name="Path 8933" d="M240.7,238.731l-2.319-16.3a1.16,1.16,0,0,0-1.841-.92l-16.926,9.774a2.964,2.964,0,0,0-1.335,2.761l2.329,16.3a1.16,1.16,0,0,0,1.841.92l16.926-9.774a2.927,2.927,0,0,0,1.325-2.761Z" transform="translate(-101.234 -63.089)" fill="#ebebeb"/>
        <path id="Path_8934" data-name="Path 8934" d="M269.139,222.331l-2.319-16.3a1.16,1.16,0,0,0-1.841-.92l-16.926,9.774a2.964,2.964,0,0,0-1.335,2.761l2.329,16.3a1.16,1.16,0,0,0,1.841.92l16.926-9.774A2.927,2.927,0,0,0,269.139,222.331Z" transform="translate(-103.499 -61.783)" fill="#ebebeb"/>
        <path id="Path_8935" data-name="Path 8935" d="M297.579,205.931l-2.319-16.3a1.16,1.16,0,0,0-1.841-.92l-16.926,9.774a2.964,2.964,0,0,0-1.335,2.761l2.329,16.3a1.16,1.16,0,0,0,1.841.92l16.926-9.774A2.927,2.927,0,0,0,297.579,205.931Z" transform="translate(-105.763 -60.477)" fill="#ebebeb"/>
        <path id="Path_8936" data-name="Path 8936" d="M326.052,189.491l-2.319-16.3a1.16,1.16,0,0,0-1.841-.92l-17.008,9.857a2.964,2.964,0,0,0-1.335,2.761l2.329,16.3a1.16,1.16,0,0,0,1.841.92l16.962-9.857a2.918,2.918,0,0,0,1.371-2.761Z" transform="translate(-108.024 -59.168)" fill="#ebebeb"/>
        <path id="Path_8937" data-name="Path 8937" d="M354.459,173.132l-2.319-16.291a1.16,1.16,0,0,0-1.841-.92l-16.926,9.765a2.954,2.954,0,0,0-1.335,2.761l2.329,16.3a1.16,1.16,0,0,0,1.841.92l16.962-9.793A2.918,2.918,0,0,0,354.459,173.132Z" transform="translate(-110.292 -57.866)" fill="#ebebeb"/>
        <path id="Path_8938" data-name="Path 8938" d="M178.878,236.871,176.55,220.58a1.15,1.15,0,0,0-1.841-.92l-16.926,9.765a2.936,2.936,0,0,0-1.335,2.761l2.347,16.3a1.15,1.15,0,0,0,1.841.92l16.926-9.774a2.918,2.918,0,0,0,1.316-2.761Z" transform="translate(-96.31 -62.941)" fill="#529ae4"/>
        <path id="Path_8939" data-name="Path 8939" d="M207.318,220.491,204.99,204.2a1.15,1.15,0,0,0-1.841-.92l-16.926,9.774a2.918,2.918,0,0,0-1.335,2.761l2.329,16.291a1.15,1.15,0,0,0,1.841.92l16.926-9.774a2.918,2.918,0,0,0,1.335-2.761Z" transform="translate(-98.575 -61.636)" fill="#ebebeb"/>
        <path id="Path_8940" data-name="Path 8940" d="M235.758,204.08l-2.329-16.3a1.15,1.15,0,0,0-1.841-.92l-16.926,9.774a2.917,2.917,0,0,0-1.335,2.761l2.329,16.291a1.15,1.15,0,0,0,1.841.92l16.926-9.765a2.936,2.936,0,0,0,1.335-2.761Z" transform="translate(-100.84 -60.329)" fill="#ebebeb"/>
        <path id="Path_8941" data-name="Path 8941" d="M264.2,187.68l-2.329-16.3a1.15,1.15,0,0,0-1.841-.92L243.1,180.234A2.917,2.917,0,0,0,241.769,183l2.319,16.3a1.16,1.16,0,0,0,1.841.92l16.926-9.774a2.936,2.936,0,0,0,1.344-2.761Z" transform="translate(-103.104 -59.023)" fill="#ebebeb"/>
        <path id="Path_8942" data-name="Path 8942" d="M292.638,171.28l-2.329-16.3a1.15,1.15,0,0,0-1.841-.92l-16.926,9.774a2.918,2.918,0,0,0-1.335,2.761l2.319,16.3a1.16,1.16,0,0,0,1.841.92l16.926-9.774a2.927,2.927,0,0,0,1.344-2.761Z" transform="translate(-105.369 -57.717)" fill="#ebebeb"/>
        <path id="Path_8943" data-name="Path 8943" d="M321.058,154.88l-2.329-16.3a1.15,1.15,0,0,0-1.841-.92l-16.926,9.774a2.927,2.927,0,0,0-1.335,2.761l2.329,16.291a1.16,1.16,0,0,0,1.841.92l16.926-9.774a2.927,2.927,0,0,0,1.335-2.752Z" transform="translate(-107.632 -56.411)" fill="#ebebeb"/>
        <path id="Path_8944" data-name="Path 8944" d="M349.518,138.49l-2.329-16.3a1.15,1.15,0,0,0-1.841-.92l-16.926,9.774a2.927,2.927,0,0,0-1.335,2.761l2.319,16.3a1.16,1.16,0,0,0,1.841.92l16.926-9.774A2.927,2.927,0,0,0,349.518,138.49Z" transform="translate(-109.898 -55.106)" fill="#ebebeb"/>
        <path id="Path_8945" data-name="Path 8945" d="M174.658,206.621l-.589-4.16a1.151,1.151,0,0,0-1.841-.92l-16.935,9.793a2.927,2.927,0,0,0-1.335,2.761l.58,4.16a1.16,1.16,0,0,0,1.841.92l16.944-9.811A2.954,2.954,0,0,0,174.658,206.621Z" transform="translate(-96.112 -61.498)" fill="#e6e6e6"/>
        <path id="Path_8946" data-name="Path 8946" d="M203.1,190.221l-.589-4.16a1.15,1.15,0,0,0-1.841-.92l-16.935,9.793a2.927,2.927,0,0,0-1.335,2.761l.58,4.16a1.16,1.16,0,0,0,1.841.92L201.754,193A2.954,2.954,0,0,0,203.1,190.221Z" transform="translate(-98.377 -60.192)" fill="#e6e6e6"/>
        <path id="Path_8947" data-name="Path 8947" d="M231.538,173.821l-.589-4.16a1.16,1.16,0,0,0-1.841-.92l-16.935,9.793a2.927,2.927,0,0,0-1.334,2.761l.58,4.16a1.15,1.15,0,0,0,1.841.92l16.935-9.774a2.954,2.954,0,0,0,1.344-2.78Z" transform="translate(-100.641 -58.887)" fill="#e6e6e6"/>
        <path id="Path_8948" data-name="Path 8948" d="M259.978,157.431l-.589-4.169a1.16,1.16,0,0,0-1.841-.92l-16.935,9.793a2.927,2.927,0,0,0-1.335,2.761l.58,4.16a1.15,1.15,0,0,0,1.841.92l16.935-9.765a2.973,2.973,0,0,0,1.344-2.78Z" transform="translate(-102.906 -57.581)" fill="#e6e6e6"/>
        <path id="Path_8949" data-name="Path 8949" d="M288.418,141.031l-.589-4.169a1.16,1.16,0,0,0-1.841-.92l-16.935,9.793a2.936,2.936,0,0,0-1.335,2.761l.58,4.16a1.15,1.15,0,0,0,1.841.92l16.935-9.765A2.973,2.973,0,0,0,288.418,141.031Z" transform="translate(-105.171 -56.275)" fill="#e6e6e6"/>
        <path id="Path_8950" data-name="Path 8950" d="M316.858,124.631l-.589-4.16a1.15,1.15,0,0,0-1.841-.92l-16.935,9.784a2.936,2.936,0,0,0-1.335,2.761l.58,4.169a1.16,1.16,0,0,0,1.841.92l16.935-9.774A2.963,2.963,0,0,0,316.858,124.631Z" transform="translate(-107.435 -54.969)" fill="#e6e6e6"/>
        <path id="Path_8951" data-name="Path 8951" d="M345.289,108.231l-.58-4.16a1.151,1.151,0,0,0-1.841-.92l-16.926,9.774a2.917,2.917,0,0,0-1.335,2.761l.58,4.16a1.16,1.16,0,0,0,1.841.92l16.935-9.774A2.936,2.936,0,0,0,345.289,108.231Z" transform="translate(-109.701 -53.663)" fill="#e6e6e6"/>
        <path id="Path_8952" data-name="Path 8952" d="M155,179.8a6.682,6.682,0,0,1,3.166-6.148c2.062-1.187,3.985-.368,4.307,1.841a6.654,6.654,0,0,1-3.175,6.148C157.244,182.829,155.321,182.01,155,179.8Z" transform="translate(-96.195 -59.252)" opacity="0.2"/>
        <path id="Path_8953" data-name="Path 8953" d="M183.469,163.42a6.664,6.664,0,0,1,3.166-6.148c2.062-1.2,3.985-.377,4.307,1.841a6.645,6.645,0,0,1-3.175,6.139C185.705,166.4,183.781,165.583,183.469,163.42Z" transform="translate(-98.462 -57.947)" opacity="0.2"/>
        <path id="Path_8954" data-name="Path 8954" d="M211.879,146.97a6.663,6.663,0,0,1,3.166-6.148c2.062-1.2,3.994-.377,4.307,1.841a6.654,6.654,0,0,1-3.166,6.139C214.124,149.989,212.191,149.17,211.879,146.97Z" transform="translate(-100.724 -56.637)" opacity="0.2"/>
        <path id="Path_8955" data-name="Path 8955" d="M268.739,114.141a6.663,6.663,0,0,1,3.166-6.148c2.062-1.187,3.985-.368,4.3,1.841a6.627,6.627,0,0,1-3.166,6.148C270.975,117.16,269.051,116.35,268.739,114.141Z" transform="translate(-105.252 -54.024)" opacity="0.2"/>
        <path id="Path_8956" data-name="Path 8956" d="M297.2,97.72a6.645,6.645,0,0,1,3.166-6.148c2.062-1.2,3.985-.377,4.307,1.841a6.654,6.654,0,0,1-3.175,6.148C299.435,100.739,297.511,99.92,297.2,97.72Z" transform="translate(-107.518 -52.716)" opacity="0.2"/>
        <path id="Path_8957" data-name="Path 8957" d="M325.609,81.31a6.663,6.663,0,0,1,3.166-6.148c2.062-1.2,3.994-.377,4.307,1.841a6.654,6.654,0,0,1-3.166,6.139C327.808,84.329,325.967,83.51,325.609,81.31Z" transform="translate(-109.78 -51.409)" opacity="0.2"/>
        <path id="Path_8958" data-name="Path 8958" d="M151.132,153.239c-2.761-1.611-5.467-1.841-7.529-.653s-3.2,3.617-3.2,6.848a16.7,16.7,0,0,0,.663,4.464l1.638-.92a14.838,14.838,0,0,1-.46-3.525c0-2.54.81-4.409,2.283-5.255a3.921,3.921,0,0,1,1.979-.5,7.639,7.639,0,0,1,3.681,1.15c4.9,2.835,8.882,9.738,8.882,15.389a10.041,10.041,0,0,1-.064,1.206,5.08,5.08,0,0,1-2.209,4.05,4.233,4.233,0,0,1-2.761.442,5.227,5.227,0,0,0-.23,1.841,6.689,6.689,0,0,0,1.04.083,5.642,5.642,0,0,0,2.89-.755,6.525,6.525,0,0,0,3.01-4.731,11.963,11.963,0,0,0,.184-2.117C160.933,163.952,156.534,156.359,151.132,153.239Z" transform="translate(-95.034 -57.558)" fill="#f5f5f5"/>
        <path id="Path_8959" data-name="Path 8959" d="M179.592,136.819c-2.761-1.611-5.467-1.841-7.529-.653s-3.2,3.617-3.2,6.848a16.7,16.7,0,0,0,.663,4.464l1.638-.92a14.838,14.838,0,0,1-.46-3.525c0-2.54.81-4.409,2.283-5.255a3.921,3.921,0,0,1,1.979-.5,7.639,7.639,0,0,1,3.681,1.15c4.9,2.835,8.882,9.738,8.882,15.389a10.038,10.038,0,0,1-.064,1.206,5.08,5.08,0,0,1-2.209,4.05,4.234,4.234,0,0,1-2.761.442,5.227,5.227,0,0,0-.23,1.841,6.693,6.693,0,0,0,1.04.083,5.642,5.642,0,0,0,2.89-.755,6.525,6.525,0,0,0,3.01-4.731,11.967,11.967,0,0,0,.184-2.117C189.393,147.559,184.994,139.939,179.592,136.819Z" transform="translate(-97.3 -56.251)" fill="#f5f5f5"/>
        <path id="Path_8960" data-name="Path 8960" d="M208,120.409c-2.761-1.611-5.467-1.841-7.529-.653s-3.2,3.617-3.2,6.848a16.706,16.706,0,0,0,.663,4.464l1.638-.92a14.838,14.838,0,0,1-.46-3.525c0-2.54.81-4.409,2.283-5.255a3.921,3.921,0,0,1,1.979-.5,7.639,7.639,0,0,1,3.681,1.15c4.9,2.835,8.882,9.738,8.882,15.389a10.031,10.031,0,0,1-.064,1.206,5.08,5.08,0,0,1-2.209,4.05,4.234,4.234,0,0,1-2.761.442,5.227,5.227,0,0,0-.23,1.841,6.691,6.691,0,0,0,1.04.083,5.642,5.642,0,0,0,2.89-.755,6.525,6.525,0,0,0,3.01-4.731,11.964,11.964,0,0,0,.184-2.117C217.8,131.149,213.4,123.529,208,120.409Z" transform="translate(-99.562 -54.944)" fill="#f5f5f5"/>
        <path id="Path_8961" data-name="Path 8961" d="M264.872,87.629c-2.761-1.611-5.467-1.841-7.529-.653s-3.2,3.617-3.2,6.848a16.707,16.707,0,0,0,.663,4.464l1.638-.92a14.836,14.836,0,0,1-.46-3.525c0-2.54.81-4.409,2.283-5.255a3.921,3.921,0,0,1,1.979-.5,7.639,7.639,0,0,1,3.681,1.15c4.9,2.835,8.882,9.738,8.882,15.389a10.035,10.035,0,0,1-.064,1.206,5.08,5.08,0,0,1-2.209,4.05,4.234,4.234,0,0,1-2.761.442,5.228,5.228,0,0,0-.23,1.841,6.691,6.691,0,0,0,1.04.083,5.642,5.642,0,0,0,2.89-.755,6.526,6.526,0,0,0,3.01-4.731,11.969,11.969,0,0,0,.184-2.117C274.673,98.369,270.274,90.749,264.872,87.629Z" transform="translate(-104.091 -52.334)" fill="#f5f5f5"/>
        <path id="Path_8962" data-name="Path 8962" d="M293.332,71.2c-2.761-1.611-5.467-1.841-7.529-.653s-3.2,3.617-3.2,6.848a16.7,16.7,0,0,0,.663,4.464l1.638-.92a14.834,14.834,0,0,1-.46-3.525c0-2.54.81-4.409,2.283-5.255a3.921,3.921,0,0,1,1.979-.5,7.639,7.639,0,0,1,3.681,1.15c4.9,2.835,8.882,9.738,8.882,15.389A10.034,10.034,0,0,1,301.2,89.4a5.081,5.081,0,0,1-2.209,4.05,4.234,4.234,0,0,1-2.761.442,5.226,5.226,0,0,0-.23,1.841,6.688,6.688,0,0,0,1.04.083,5.642,5.642,0,0,0,2.89-.755,6.525,6.525,0,0,0,3.01-4.731,11.966,11.966,0,0,0,.184-2.117C303.133,81.949,298.734,74.319,293.332,71.2Z" transform="translate(-106.357 -51.025)" fill="#f5f5f5"/>
        <path id="Path_8963" data-name="Path 8963" d="M321.741,54.789c-2.761-1.611-5.467-1.841-7.529-.653S311,57.752,311,60.983a16.7,16.7,0,0,0,.663,4.464l1.638-.92a14.835,14.835,0,0,1-.46-3.525c0-2.54.81-4.409,2.283-5.255a3.921,3.921,0,0,1,1.979-.5,7.639,7.639,0,0,1,3.681,1.15c4.9,2.835,8.882,9.738,8.882,15.389a10.041,10.041,0,0,1-.064,1.206,5.08,5.08,0,0,1-2.209,4.05,4.234,4.234,0,0,1-2.761.442,5.228,5.228,0,0,0-.23,1.841,6.691,6.691,0,0,0,1.04.083,5.642,5.642,0,0,0,2.89-.755,6.525,6.525,0,0,0,3.01-4.731,11.969,11.969,0,0,0,.184-2.117C331.543,65.529,327.143,57.909,321.741,54.789Z" transform="translate(-108.618 -49.719)" fill="#f5f5f5"/>
      </g>
    </g>
    <g id="freepik--Device--inject-71" transform="translate(304.6 197.414)">
      <g id="freepik--Clock--inject-71">
        <path id="Path_8964" data-name="Path 8964" d="M351.648,314.925l-6.185,10.741a2.959,2.959,0,1,0,5.062,3.065l6.222-10.805c.6-1.031-.046-2.531-1.445-3.341S352.246,313.922,351.648,314.925Z" transform="translate(-328.555 -218.488)" fill="#032f55"/>
        <path id="Path_8965" data-name="Path 8965" d="M405.621,294l10.741,6.185a2.927,2.927,0,1,0,3-5.026l-10.805-6.175c-1.031-.6-2.531.046-3.341,1.445S404.59,293.4,405.621,294Z" transform="translate(-333.307 -216.473)" fill="#032f55"/>
        <path id="Path_8966" data-name="Path 8966" d="M411.668,240.355h-.055l-26.166-15.1h-.074c-5.743-3.267-13.658-2.761-22.393,2.264C345.429,237.64,331.2,262.3,331.2,282.563c0,10.124,3.543,17.2,9.259,20.533h.046l26.166,15.112h.064c5.743,3.286,13.668,2.761,22.411-2.255,17.542-10.124,31.771-34.781,31.771-55.038C420.918,250.792,417.384,243.686,411.668,240.355Z" transform="translate(-327.454 -211.252)" fill="#529ae4"/>
        <path id="Path_8967" data-name="Path 8967" d="M366.245,320.613l-25.77-14.855h-.055c-5.715-3.341-9.25-10.446-9.25-20.533,0-9.038,2.835-18.941,7.519-28.035l26.166,15.1c-4.694,9.093-7.519,19-7.519,28.035C357.355,310.176,360.741,317.189,366.245,320.613Z" transform="translate(-327.451 -213.96)" opacity="0.1"/>
        <ellipse id="Ellipse_159" data-name="Ellipse 159" cx="44.942" cy="25.945" rx="44.942" ry="25.945" transform="translate(16.753 93.928) rotate(-60)" fill="#fff" opacity="0.4"/>
        <path id="Path_8968" data-name="Path 8968" d="M377.766,315.685c-10.05,0-11.137-11.357-11.137-16.245,0-17.874,13.078-40.5,28.532-49.461,3.939-2.273,7.731-3.47,10.971-3.47,10.05,0,11.137,11.357,11.137,16.245,0,17.874-13.078,40.5-28.531,49.461-3.948,2.273-7.74,3.47-10.971,3.47Z" transform="translate(-330.275 -213.109)" fill="#fafafa"/>
        <path id="Path_8969" data-name="Path 8969" d="M386.46,304.772a.413.413,0,0,1-.147,0,.469.469,0,0,1-.285-.589l7.041-20.11a.463.463,0,1,1,.874.3l-7.022,20.083A.451.451,0,0,1,386.46,304.772Z" transform="translate(-331.818 -216.076)" fill="#529ae4"/>
        <path id="Path_8970" data-name="Path 8970" d="M404.588,288.348a1.28,1.28,0,0,1-.543-.11l-11.385-4.924V262.661a1.381,1.381,0,0,1,2.761,0V281.5l9.719,4.206a1.381,1.381,0,0,1-.552,2.641Z" transform="translate(-332.348 -214.285)" fill="#032f55"/>
        <path id="Path_8971" data-name="Path 8971" d="M393.836,279.356c2.062-1.2,3.737-.23,3.737,2.154a8.283,8.283,0,0,1-3.737,6.443c-2.071,1.2-3.746.23-3.746-2.163a8.283,8.283,0,0,1,3.746-6.433Z" transform="translate(-332.143 -215.684)" fill="#529ae4"/>
        <path id="Path_8972" data-name="Path 8972" d="M358.737,261.326c-4.51,7.8-13,11.33-19.392,7.639a16.319,16.319,0,1,1,16.337-28.255C362.05,244.484,363.228,253.522,358.737,261.326Z" transform="translate(-327.453 -212.473)" fill="#0e3e68"/>
        <path id="Path_8973" data-name="Path 8973" d="M339.345,269.671c6.387,3.682,14.882.157,19.392-7.639a20.745,20.745,0,0,0,2.218-5.6c-.258.341-7.768,9.912-17.1,7.216-9.5-2.761-11.284-10.06-10.465-16.281A16.318,16.318,0,0,0,339.345,269.671Z" transform="translate(-327.453 -213.178)" fill="#032f55"/>
        <path id="Path_8974" data-name="Path 8974" d="M336.4,245.375l-4.841-2.761a2.927,2.927,0,1,0-3,5.026l4.9,2.834c1.04.6,2.54-.046,3.35-1.445S337.429,245.973,336.4,245.375Z" transform="translate(-327.129 -212.766)" fill="#529ae4"/>
        <path id="Path_8975" data-name="Path 8975" d="M415.2,219.479l2.761-4.832a2.927,2.927,0,1,0-5.026-3l-2.834,4.9c-.6,1.031,0,2.531,1.445,3.341S414.591,220.519,415.2,219.479Z" transform="translate(-333.718 -210.219)" fill="#529ae4"/>
        <path id="Path_8976" data-name="Path 8976" d="M390.25,221.743a16.339,16.339,0,0,1,28.3,16.337Z" transform="translate(-332.156 -210.486)" fill="#0e3e68"/>
        <path id="Path_8977" data-name="Path 8977" d="M415.436,217.84c.92,1.924,3.424,10.069,0,12.094S396.2,225.24,396.2,225.24l22.825,13.18a16.327,16.327,0,0,0-3.589-20.58Z" transform="translate(-332.629 -210.826)" fill="#032f55"/>
      </g>
    </g>
    <g id="freepik--Character--inject-71" transform="translate(224.478 192.882)">
      <g id="freepik--character--inject-71-2" data-name="freepik--character--inject-71">
        <path id="Path_8978" data-name="Path 8978" d="M302.732,266.34c-16.291-21.9-21.647-24.335-24.712-25.08l5.375,14.726,11.173,14.33" transform="translate(-243.097 -208.16)" fill="#ffa8a7"/>
        <path id="Path_8979" data-name="Path 8979" d="M276.29,240.992s3.461-1.049,8.467,3.856S295.8,256.905,295.8,256.905s-1.629,5.844-6.719,7.657l-7.363-7.657Z" transform="translate(-242.959 -208.131)" fill="#529ae4"/>
        <path id="Path_8980" data-name="Path 8980" d="M276.29,240.992s3.461-1.049,8.467,3.856S295.8,256.905,295.8,256.905s-1.629,5.844-6.719,7.657l-7.363-7.657Z" transform="translate(-242.959 -208.131)" opacity="0.1"/>
        <circle id="Ellipse_160" data-name="Ellipse 160" cx="9.351" cy="9.351" r="9.351" transform="translate(23.106 4.692) rotate(-13.28)" fill="#263238"/>
        <rect id="Rectangle_3037" data-name="Rectangle 3037" width="6.59" height="11.275" transform="translate(18.559 181.151) rotate(180)" fill="#ffa8a7"/>
        <path id="Path_8981" data-name="Path 8981" d="M276.42,392.187l6.581.23.331-11.937-6.59-.23Z" transform="translate(-242.969 -219.227)" fill="#ffa8a7"/>
        <path id="Path_8982" data-name="Path 8982" d="M253.373,292.739v45.568c-.156,1.841-1.491,4.942-1.841,12.646-.442,9.452,1,35.462,1,35.462s3.083,3.065,7.446,0c0,0,5.844-37.128,7.032-46.488,1.031-8.173,2.761-30.372,2.761-30.372l3.939,33.437s-1.077,6.139-1.307,10.465,1.9,27.455,1.9,27.455a7.206,7.206,0,0,0,7.17.267s4.51-34.652,5.191-38.564-2.476-49.884-2.476-49.884Z" transform="translate(-240.981 -212.258)" fill="#032f55"/>
        <path id="Path_8983" data-name="Path 8983" d="M259.872,243.107a15.165,15.165,0,0,0-2.715.635c-1.841.709-2.641,2.936-3.074,4.9a23.215,23.215,0,0,0-.543,5.007V288.62c4.6,5.025,20.727,7.363,30.814,0,0,0-.193-30.888-.92-35.968-1.316-8.817-5.522-11.965-9.774-11.633l-10.17,1.454Z" transform="translate(-241.147 -208.139)" fill="#529ae4"/>
        <path id="Path_8984" data-name="Path 8984" d="M259.84,225.16s1.519,7.114,2.126,8.283a3.258,3.258,0,0,0,1.841,1.509l-.11-5.016Z" transform="translate(-241.649 -206.878)" fill="#263238"/>
        <path id="Path_8985" data-name="Path 8985" d="M261.6,214.068a3.534,3.534,0,0,0-2.908,1.022c-1.243,1.279-.543,5.274,1,9.2l2.862.322Z" transform="translate(-241.507 -205.993)" fill="#263238"/>
        <path id="Path_8986" data-name="Path 8986" d="M263.311,224.219c-.58.35-1.39-.755-2.1-1.491a2.485,2.485,0,0,0-4.16.672c-1.15,2.421,1.012,5.734,2.826,6.3,3.129.976,3.6-1.031,3.6-1.031l.239,11.284a10.06,10.06,0,0,0,7.593,5.762c5.522.745,4.4-3.82,2.577-6.065v-3.433a19.76,19.76,0,0,0,4.215.221c2.3-.359,3.746-2.172,4.445-4.657,1.123-4,1.546-7.225.6-15.094-1.049-8.615-11.044-8.707-16.484-5.3S263.311,224.219,263.311,224.219Z" transform="translate(-241.401 -205.615)" fill="#ffa8a7"/>
        <path id="Path_8987" data-name="Path 8987" d="M263.666,224.867c-.295,0-1.39-1.841-2.1-2.457-.985-.92.285-9.038.285-9.038a3.847,3.847,0,0,1,.92-4.114c1.344-1.491,3.608-1.647,7.464-2.255,2.025-.322,5.1-.92,7.124-1.261,2.411-.451,4.409-.92,6.111.552a4.261,4.261,0,0,1,1.187,4.8,4.041,4.041,0,0,1-.69,1.031c-.488.543-.571,1.279-1.261,1.5,0,0-1.463,1.325-5.126,1.767a54.09,54.09,0,0,1-10.124-.193c-1.068-.147-1.353.193-1.924,3C265.047,220.67,264.632,224.848,263.666,224.867Z" transform="translate(-241.757 -205.296)" fill="#263238"/>
        <path id="Path_8988" data-name="Path 8988" d="M261.621,214.506l-3.461-1.841a1.9,1.9,0,0,1,2.614-.865,2.071,2.071,0,0,1,.847,2.706Z" transform="translate(-241.515 -205.796)" fill="#263238"/>
        <path id="Path_8989" data-name="Path 8989" d="M274.546,238.166s-5.126-1.031-6.921-1.988a5.9,5.9,0,0,1-2.485-2.448,8.173,8.173,0,0,0,1.408,2.89c1.316,1.675,8,2.918,8,2.918Z" transform="translate(-242.071 -207.56)" fill="#f28f8f"/>
        <path id="Path_8990" data-name="Path 8990" d="M274.2,225.048a1.04,1.04,0,1,1-.291-.75A1.031,1.031,0,0,1,274.2,225.048Z" transform="translate(-242.629 -206.784)" fill="#263238"/>
        <path id="Path_8991" data-name="Path 8991" d="M272.987,220.87l-2.2,1.206a1.325,1.325,0,0,1,.515-1.749,1.224,1.224,0,0,1,1.684.543Z" transform="translate(-242.509 -206.481)" fill="#263238"/>
        <path id="Path_8992" data-name="Path 8992" d="M274.852,231.84l2.347.92a1.224,1.224,0,0,1-1.592.773,1.3,1.3,0,0,1-.755-1.693Z" transform="translate(-242.837 -207.41)" fill="#f28f8f"/>
        <path id="Path_8993" data-name="Path 8993" d="M284.166,221.681l-2.006-1.546a1.215,1.215,0,0,1,1.749-.267,1.325,1.325,0,0,1,.258,1.813Z" transform="translate(-243.426 -206.436)" fill="#263238"/>
        <path id="Path_8994" data-name="Path 8994" d="M283.485,224.737a1.04,1.04,0,0,1-1.031,1.058,1.068,1.068,0,1,1,1.031-1.058Z" transform="translate(-243.362 -206.758)" fill="#263238"/>
        <path id="Path_8995" data-name="Path 8995" d="M277.62,222.74l.341,6.185,3.23-1.1Z" transform="translate(-243.065 -206.685)" fill="#f28f8f"/>
        <path id="Path_8996" data-name="Path 8996" d="M259.534,398.51v-.92c.635.267,2.1,5.863,4.712,8.283,2.08,1.9,4.915,4.077,5.633,6.194s-3.948,3.415-5.89,3.065c-2.255-.4-6.166-1.988-7.142-3.461s-1.445-3.681-2.246-4.722-2.632-2.283-3.065-3.534a7.97,7.97,0,0,1,.377-3.461c.3-1.16.635-2.439,1.031-2.328v.718a5.292,5.292,0,0,0,3.295,1.114C257.205,399.44,259.543,399.247,259.534,398.51Z" transform="translate(-240.984 -220.608)" fill="#032f55"/>
        <path id="Path_8997" data-name="Path 8997" d="M282.893,391.225c.35,0,.626.5,1.381,1.316a14.387,14.387,0,0,0,3.875,2.761c2.467,1.242,7.262,3.138,9.434,4.114,1.353.617,1.289,2.255-.11,3.185s-4.786,1.6-8.845.69c-2.218-.488-5.1-2.54-6.921-2.43s-5.237.092-6.581-.838-.81-2.908-.433-4.6c.414-1.841,1.012-4.7,1.629-4.6v.589c.8,1.2,4.832,1.684,6.571.81Z" transform="translate(-242.798 -220.069)" fill="#032f55"/>
        <path id="Path_8998" data-name="Path 8998" d="M271.36,310.545a24.354,24.354,0,0,0,9.2-5.255s-1.767,3.313-7.032,6.4l.11,17.956Z" transform="translate(-242.566 -213.258)" fill="#263238"/>
        <path id="Path_8999" data-name="Path 8999" d="M256.379,305.483c-1.086-.92-1.767-2.108-3.405-3.313a8.743,8.743,0,0,1-2.9-2.936c-.92-1.546-1.841-6.7-2.117-11.6a48.135,48.135,0,0,1,2.273-16.134c2.237-6.176,6.774-14.459,8.283-17.956s.7-5.255-.653-7.032c-1.583-2.08-4.519-2.089-7.289,2.651a101.631,101.631,0,0,0-8.78,20.81,50.74,50.74,0,0,0-1.592,16.631c.3,5.182,1.436,9.139,2.89,14.118.4,1.353.359,2.457.819,5.136a11.42,11.42,0,0,0,.847,3.249,14.8,14.8,0,0,0,2.365,3.415,9.9,9.9,0,0,0,4.409,2.761,6.157,6.157,0,0,0,2.862.156,4.086,4.086,0,0,0,2.439-1.436,1.168,1.168,0,0,0,.258-.525,1.344,1.344,0,0,0-.377-.92,59.391,59.391,0,0,1-3.681-4.786c-.847-1.427-1.252-2.559-.92-2.494s.764.92,2,1.693,2.761.745,3.12.055S257.493,306.422,256.379,305.483Z" transform="translate(-240.075 -208.472)" fill="#ffa8a7"/>
        <path id="Path_9000" data-name="Path 9000" d="M257.032,243.75c-2.632.156-5.025.746-7.658,5.964s-6.765,14.993-6.765,14.993a11.339,11.339,0,0,0,10.06,5.808s6.056-12.646,7.041-15.978S261.376,245.821,257.032,243.75Z" transform="translate(-240.277 -208.358)" fill="#529ae4"/>
        <path id="Path_9001" data-name="Path 9001" d="M257.032,243.75c-2.632.156-5.025.746-7.658,5.964s-6.765,14.993-6.765,14.993a11.339,11.339,0,0,0,10.06,5.808s6.056-12.646,7.041-15.978S261.376,245.821,257.032,243.75Z" transform="translate(-240.277 -208.358)" opacity="0.1"/>
        <path id="Path_9002" data-name="Path 9002" d="M293.6,272.486c-.6,1.749-6.341,7.078-10.566,8.771a5.78,5.78,0,0,1-3.111.184,7.8,7.8,0,0,0-3.129-.607c-1.233.11-2.485.35-3.728.5a1.841,1.841,0,0,0-.745.184c-.755.414-.322,1.049.276,1.279a22.037,22.037,0,0,0,2.954.838v.267a29.551,29.551,0,0,1-7.97,1.6,2.228,2.228,0,0,0-1.335.46,1.4,1.4,0,0,0-.3,1.307,3.4,3.4,0,0,0,.644,1.224,7.648,7.648,0,0,0,4.8,3.267,14.865,14.865,0,0,0,5.881-.736q1.371-.387,2.706-.856a61.372,61.372,0,0,0,7.593-3.4,68.515,68.515,0,0,0,14.487-10.189c2.651-2.586,2-5.071-.23-8.072" transform="translate(-242.131 -210.33)" fill="#ffa8a7"/>
        <path id="Path_9003" data-name="Path 9003" d="M283.85,282.454s.92-.341,1.97,1.344,1.712,4.758.4,5.366a2.614,2.614,0,0,0,2.319-1.15,6.525,6.525,0,0,0-2.319-6.553A3.488,3.488,0,0,0,283.85,282.454Z" transform="translate(-243.561 -211.361)" fill="#37474f"/>
        <path id="Path_9004" data-name="Path 9004" d="M288.826,283.127a1.951,1.951,0,1,1-2.651-.7,1.951,1.951,0,0,1,2.651.7Z" transform="translate(-243.668 -211.417)" fill="#529ae4"/>
        <path id="Path_9005" data-name="Path 9005" d="M288.418,283.428a1.427,1.427,0,1,1-.867-.667,1.436,1.436,0,0,1,.867.667Z" transform="translate(-243.712 -211.46)" fill="#fafafa"/>
      </g>
    </g>
  </g>
</svg>
