<svg xmlns="http://www.w3.org/2000/svg" width="65" height="105" viewBox="0 0 65 105">
  <g id="Group_1639" data-name="Group 1639" transform="translate(-884.618 -411)">
    <path id="_2135809_communication_mobile_phone_icon" data-name="2135809_communication_mobile_phone_icon" d="M159.806,6H107.394a6.289,6.289,0,0,0-6.294,6.3v92.4a6.289,6.289,0,0,0,6.294,6.3h52.411a6.289,6.289,0,0,0,6.294-6.3V12.3A6.289,6.289,0,0,0,159.806,6Zm-35.731,4.83h19.051a.756.756,0,0,1,0,1.512H124.075a.756.756,0,0,1,0-1.512Zm-2.308,94.206H114.36a2,2,0,0,1,0-3.99h7.406a2,2,0,0,1,0,3.99Zm15.988-.378a2.535,2.535,0,0,1-2.539,2.541h-3.252a2.535,2.535,0,0,1-2.539-2.541V101.4a2.535,2.535,0,0,1,2.539-2.541h3.252a2.535,2.535,0,0,1,2.539,2.541Zm15.065.378h-7.406a2,2,0,0,1,0-3.99h7.406a2,2,0,0,1,0,3.99Zm10.029-9.807h-58.5V17.445h58.5Z" transform="translate(783.518 405)" fill="#032f55"/>
    <rect id="Rectangle_2911" data-name="Rectangle 2911" width="54.436" height="74" transform="translate(890 424)" fill="#e1ebf5"/>
  </g>
</svg>
