<svg xmlns="http://www.w3.org/2000/svg" width="196.217" height="262.545" viewBox="0 0 196.217 262.545">
  <g id="Group_1946" data-name="Group 1946" transform="translate(-45.473)">
    <path id="Path_13759" data-name="Path 13759" d="M171.939,0C89.118,0,49.925,81.052,89.032,136l74.157,121.923a10.609,10.609,0,0,0,17.515,0l74.017-121.672C293.728,80.889,255.211,0,171.939,0Zm0,122.524c-27.426,0-49.721-19.633-49.721-43.758s22.295-43.758,49.721-43.758S221.66,54.64,221.66,78.765,199.365,122.524,171.939,122.524Z" transform="translate(-28.32)" fill="#032f56"/>
    <path id="Path_13760" data-name="Path 13760" d="M232.736,127.554a1.1,1.1,0,0,1-.7.365h-.1a1.04,1.04,0,0,1-.7-.232l-23.031-19.205-23.031,19.205a1.132,1.132,0,0,1-.8.232,1.1,1.1,0,0,1-.7-.365l-2.062-2.466a1.094,1.094,0,0,1,.133-1.5l23.932-19.935a4.092,4.092,0,0,1,5.058,0l8.121,6.789v-6.49a1.054,1.054,0,0,1,1.067-1.067h6.391a1.054,1.054,0,0,1,1.067,1.067V117.53l7.286,6.059a1.094,1.094,0,0,1,.133,1.5l-2.062,2.466Zm-5.357,15.811a2.143,2.143,0,0,1-2.128,2.128H212.47V132.712h-8.519v12.781H191.169a2.143,2.143,0,0,1-2.128-2.128V127.388c0-.066.033-.133.033-.2l19.139-15.778,19.139,15.778a.42.42,0,0,1,.033.2v15.977Z" transform="translate(-64.642 -41.644)" fill="#4594e1"/>
  </g>
</svg>
