<svg xmlns="http://www.w3.org/2000/svg" width="488.683" height="386.712" viewBox="0 0 488.683 386.712">
  <g id="Group_1659" data-name="Group 1659" transform="translate(-275.774 -373)">
    <g id="freepik--Tab--inject-47" transform="translate(564.414 458.751)">
      <rect id="Rectangle_2918" data-name="Rectangle 2918" width="199.594" height="256.155" rx="15" transform="translate(0.185 0.255)" fill="#fff"/>
      <path id="Path_8593" data-name="Path 8593" d="M655.939,383.011c0-1.8-.088-104.118-.211-256.146l.211.2H456.353l.229-.229V382.985l-.193-.185,199.585.185-199.585.193H456.2v-.193c0-72.906,0-161.128-.044-256.146v-.229H656.2v.211C656.018,278.893,655.939,381.209,655.939,383.011Z" transform="translate(-456.16 -126.61)" fill="#263238"/>
      <rect id="Rectangle_2919" data-name="Rectangle 2919" width="160.328" height="27.696" rx="13.848" transform="translate(20.126 97.981)" fill="#ebebeb"/>
      <rect id="Rectangle_2920" data-name="Rectangle 2920" width="160.328" height="27.696" rx="13.848" transform="translate(20.284 136.017)" fill="#ebebeb"/>
      <path id="Path_8594" data-name="Path 8594" d="M498.3,251.693c0,1.389-1.011,2.233-2.638,2.233h-1.583v1.934H493.2v-6.4h2.5C497.262,249.442,498.3,250.286,498.3,251.693Zm-.879,0c0-.879-.615-1.442-1.758-1.442h-1.556v2.875h1.556c1.081-.018,1.7-.554,1.7-1.433Z" transform="translate(-460.633 -141.447)" fill="#263238"/>
      <path id="Path_8595" data-name="Path 8595" d="M504.1,253.122v2.928h-.835v-.633a1.8,1.8,0,0,1-1.591.7c-1.1,0-1.758-.589-1.758-1.433s.5-1.416,1.952-1.416h1.389V253.1c0-.739-.431-1.169-1.3-1.169a2.48,2.48,0,0,0-1.539.519l-.36-.659a3.253,3.253,0,0,1,2-.615A1.784,1.784,0,0,1,504.1,253.122Zm-.879,1.451V253.9h-1.354c-.879,0-1.117.334-1.117.747s.4.783,1.073.783a1.416,1.416,0,0,0,1.4-.888Z" transform="translate(-461.444 -141.653)" fill="#263238"/>
      <path id="Path_8596" data-name="Path 8596" d="M505.82,255.538l.361-.695a3.148,3.148,0,0,0,1.706.5c.818,0,1.152-.246,1.152-.659,0-1.09-3.06-.141-3.06-2.075,0-.879.774-1.451,2.022-1.451a3.455,3.455,0,0,1,1.758.44l-.369.695a2.488,2.488,0,0,0-1.407-.387c-.765,0-1.143.281-1.143.668,0,1.143,3.077.211,3.077,2.093,0,.879-.8,1.442-2.093,1.442A3.517,3.517,0,0,1,505.82,255.538Z" transform="translate(-462.157 -141.652)" fill="#263238"/>
      <path id="Path_8597" data-name="Path 8597" d="M511,255.539l.369-.695a3.1,3.1,0,0,0,1.7.5c.818,0,1.152-.246,1.152-.659,0-1.09-3.06-.141-3.06-2.075,0-.879.774-1.451,2.022-1.451a3.517,3.517,0,0,1,1.758.44l-.378.695a2.479,2.479,0,0,0-1.4-.387c-.774,0-1.152.281-1.152.668,0,1.143,3.077.211,3.077,2.093,0,.879-.8,1.442-2.093,1.442a3.517,3.517,0,0,1-2-.572Z" transform="translate(-462.783 -141.652)" fill="#263238"/>
      <path id="Path_8598" data-name="Path 8598" d="M524.071,251.21l-1.811,4.845h-.879l-1.4-3.675-1.345,3.675h-.879L516,251.21h.835l1.407,3.86,1.46-3.86h.695l1.433,3.877,1.442-3.877Z" transform="translate(-463.387 -141.658)" fill="#263238"/>
      <path id="Path_8599" data-name="Path 8599" d="M525.52,253.647a2.523,2.523,0,1,1,2.523,2.479,2.409,2.409,0,0,1-2.523-2.479Zm4.15,0a1.635,1.635,0,1,0-1.627,1.706,1.591,1.591,0,0,0,1.626-1.706Z" transform="translate(-464.536 -141.642)" fill="#263238"/>
      <path id="Path_8600" data-name="Path 8600" d="M535.241,251.159v.879h-.2a1.451,1.451,0,0,0-1.53,1.644v2.409h-.879v-4.845h.879v.809A1.855,1.855,0,0,1,535.241,251.159Z" transform="translate(-465.395 -141.651)" fill="#263238"/>
      <path id="Path_8601" data-name="Path 8601" d="M541.317,249v6.788h-.879v-.765a2.075,2.075,0,0,1-1.758.826,2.479,2.479,0,0,1,0-4.95,2.075,2.075,0,0,1,1.758.739V249Zm-.879,4.4A1.635,1.635,0,1,0,538.8,255.1a1.6,1.6,0,0,0,1.635-1.706Z" transform="translate(-465.844 -141.391)" fill="#263238"/>
      <path id="Path_8602" data-name="Path 8602" d="M492.5,297.929a3.235,3.235,0,0,1,3.394-3.28,3.148,3.148,0,0,1,2.427,1l-.589.572a2.383,2.383,0,0,0-1.8-.756,2.462,2.462,0,1,0,0,4.924,2.365,2.365,0,0,0,1.8-.774l.589.58a3.156,3.156,0,0,1-2.435,1,3.236,3.236,0,0,1-3.385-3.271Z" transform="translate(-460.549 -146.904)" fill="#263238"/>
      <path id="Path_8603" data-name="Path 8603" d="M499.72,298.907a2.523,2.523,0,1,1,2.532,2.479,2.418,2.418,0,0,1-2.532-2.479Zm4.159,0a1.635,1.635,0,1,0-1.635,1.635,1.635,1.635,0,0,0,1.635-1.635Z" transform="translate(-461.421 -147.108)" fill="#263238"/>
      <path id="Path_8604" data-name="Path 8604" d="M511.438,298.557v2.77h-.879v-2.638c0-.95-.475-1.416-1.3-1.416a1.433,1.433,0,0,0-1.539,1.609v2.444h-.879v-4.845h.879v.73a2.075,2.075,0,0,1,1.758-.783,1.882,1.882,0,0,1,1.961,2.128Z" transform="translate(-462.281 -147.119)" fill="#263238"/>
      <path id="Path_8605" data-name="Path 8605" d="M515.557,294.228a1.609,1.609,0,0,1,.985.281l-.264.668a1.125,1.125,0,0,0-.677-.229c-.519,0-.783.29-.783.879v.422h1.407v.721h-1.389v4.08h-.879v-4.124h-.826v-.721h.826v-.431a1.451,1.451,0,0,1,1.6-1.547Zm2.075.492a.58.58,0,0,1,.6-.58.571.571,0,1,1-.6.58Zm.158,1.5h.879v4.827h-.879Z" transform="translate(-463.04 -146.842)" fill="#263238"/>
      <path id="Path_8606" data-name="Path 8606" d="M523.932,296.449v.879h-.2a1.442,1.442,0,0,0-1.521,1.635v2.365h-.879v-4.845h.835v.809A1.864,1.864,0,0,1,523.932,296.449Z" transform="translate(-464.031 -147.12)" fill="#263238"/>
      <path id="Path_8607" data-name="Path 8607" d="M533.574,298.557v2.77h-.879v-2.638c0-.95-.457-1.416-1.257-1.416a1.441,1.441,0,0,0-1.451,1.609v2.444h-.879v-2.638c0-.95-.457-1.416-1.257-1.416a1.441,1.441,0,0,0-1.451,1.609v2.444h-.879v-4.845h.879v.721a1.943,1.943,0,0,1,1.671-.774,1.758,1.758,0,0,1,1.679.879,2.207,2.207,0,0,1,1.873-.879,1.864,1.864,0,0,1,1.952,2.128Z" transform="translate(-464.537 -147.118)" fill="#263238"/>
      <path id="Path_8608" data-name="Path 8608" d="M544.64,296.971c0,1.389-1.011,2.224-2.638,2.224h-1.583v1.926h-.879v-6.4h2.5C543.628,294.738,544.64,295.573,544.64,296.971Zm-.923,0c0-.879-.607-1.442-1.758-1.442h-1.574V298.4h1.556c1.169,0,1.776-.519,1.776-1.433Z" transform="translate(-466.23 -146.913)" fill="#263238"/>
      <path id="Path_8609" data-name="Path 8609" d="M550.426,298.417v2.91H549.6v-.642a1.811,1.811,0,0,1-1.591.695c-1.1,0-1.758-.58-1.758-1.424s.5-1.416,1.943-1.416h1.354v-.176c0-.739-.422-1.169-1.292-1.169a2.48,2.48,0,0,0-1.539.519l-.369-.659a3.245,3.245,0,0,1,2-.624C549.705,296.447,550.426,297.089,550.426,298.417Zm-.879,1.442v-.677h-1.354c-.879,0-1.108.343-1.108.756s.4.783,1.064.783a1.389,1.389,0,0,0,1.4-.862Z" transform="translate(-467.04 -147.119)" fill="#263238"/>
      <path id="Path_8610" data-name="Path 8610" d="M552.19,300.837l.36-.695a3.148,3.148,0,0,0,1.706.5c.809,0,1.152-.246,1.152-.659,0-1.09-3.068-.149-3.068-2.075,0-.879.782-1.46,2.022-1.46a3.517,3.517,0,0,1,1.758.44l-.378.695a2.541,2.541,0,0,0-1.4-.378c-.765,0-1.143.281-1.143.668,0,1.143,3.077.211,3.077,2.093,0,.879-.809,1.433-2.1,1.433A3.518,3.518,0,0,1,552.19,300.837Z" transform="translate(-467.758 -147.121)" fill="#263238"/>
      <path id="Path_8611" data-name="Path 8611" d="M557.4,300.837l.36-.695a3.148,3.148,0,0,0,1.706.5c.809,0,1.152-.246,1.152-.659,0-1.09-3.068-.149-3.068-2.075,0-.879.783-1.46,2.022-1.46a3.517,3.517,0,0,1,1.758.44l-.378.695a2.541,2.541,0,0,0-1.4-.378c-.765,0-1.143.281-1.143.668,0,1.143,3.077.211,3.077,2.093,0,.879-.809,1.433-2.1,1.433a3.517,3.517,0,0,1-1.987-.563Z" transform="translate(-468.387 -147.121)" fill="#263238"/>
      <path id="Path_8612" data-name="Path 8612" d="M570.435,296.508l-1.811,4.827h-.879l-1.4-3.675-1.389,3.675h-.879l-1.759-4.845h.827l1.416,3.86,1.459-3.86h.739l1.442,3.877,1.442-3.877Z" transform="translate(-468.981 -147.126)" fill="#263238"/>
      <path id="Path_8613" data-name="Path 8613" d="M571.89,298.907a2.523,2.523,0,1,1,2.523,2.479,2.409,2.409,0,0,1-2.523-2.479Zm4.15,0a1.635,1.635,0,1,0-1.635,1.635,1.635,1.635,0,0,0,1.635-1.635Z" transform="translate(-470.137 -147.108)" fill="#263238"/>
      <path id="Path_8614" data-name="Path 8614" d="M581.641,296.449v.879h-.2a1.442,1.442,0,0,0-1.53,1.635v2.365h-.879v-4.845h.879v.809a1.855,1.855,0,0,1,1.732-.844Z" transform="translate(-470.999 -147.12)" fill="#263238"/>
      <path id="Path_8615" data-name="Path 8615" d="M587.657,294.3v6.77h-.879v-.765a2.04,2.04,0,0,1-1.758.818,2.479,2.479,0,0,1,0-4.95,2.031,2.031,0,0,1,1.688.783v-2.638Zm-.879,4.4a1.635,1.635,0,1,0-1.627,1.715,1.591,1.591,0,0,0,1.635-1.75Z" transform="translate(-471.441 -146.862)" fill="#263238"/>
      <rect id="Rectangle_2921" data-name="Rectangle 2921" width="160.319" height="27.696" rx="13.848" transform="translate(19.352 178.906)" fill="#529ae4"/>
      <path id="Path_8616" data-name="Path 8616" d="M546.79,345.623a3.306,3.306,0,0,1,3.517-3.323,3.376,3.376,0,0,1,2.752,1.2l-1.152,1.046a1.881,1.881,0,0,0-1.512-.756,1.838,1.838,0,0,0,0,3.666,1.908,1.908,0,0,0,1.512-.756l1.152,1.046a3.4,3.4,0,0,1-2.752,1.2,3.306,3.306,0,0,1-3.517-3.332Z" transform="translate(-467.105 -152.658)" fill="#fff"/>
      <path id="Path_8617" data-name="Path 8617" d="M560.019,345.957v2.84h-1.758v-2.559c0-.712-.317-1.011-.818-1.011s-.985.343-.985,1.169v2.4H554.7V342h1.759v2.295a2.119,2.119,0,0,1,1.486-.545,1.943,1.943,0,0,1,2.075,2.207Z" transform="translate(-468.061 -152.623)" fill="#fff"/>
      <path id="Path_8618" data-name="Path 8618" d="M566.6,346.276v2.761h-1.618v-.642a1.512,1.512,0,0,1-1.468.721c-1.187,0-1.846-.668-1.846-1.53s.668-1.477,2.207-1.477h.985c0-.51-.369-.791-1.055-.791a2.339,2.339,0,0,0-1.345.431l-.58-1.178a4.124,4.124,0,0,1,2.189-.58C565.679,344,566.6,344.7,566.6,346.276Zm-1.758,1.169v-.431H564.1c-.563,0-.765.193-.765.5s.246.5.651.5a.879.879,0,0,0,.879-.571Z" transform="translate(-468.902 -152.863)" fill="#fff"/>
      <path id="Path_8619" data-name="Path 8619" d="M573.8,346.2v2.84h-1.759v-2.559c0-.712-.308-1.011-.809-1.011s-.993.343-.993,1.169v2.4H568.48v-4.959h1.653v.536a2.127,2.127,0,0,1,1.574-.624A1.943,1.943,0,0,1,573.8,346.2Z" transform="translate(-469.725 -152.862)" fill="#fff"/>
      <path id="Path_8620" data-name="Path 8620" d="M581.151,344.077v4.053c0,1.873-1.064,2.761-2.91,2.761a4.4,4.4,0,0,1-2.462-.651l.633-1.213a2.9,2.9,0,0,0,1.671.528c.932,0,1.328-.422,1.328-1.2v-.167a1.838,1.838,0,0,1-1.468.58,2.392,2.392,0,0,1,0-4.783,1.811,1.811,0,0,1,1.556.686v-.6Zm-1.758,2.3a1.081,1.081,0,1,0-1.081,1.011,1,1,0,0,0,1.152-1.011Z" transform="translate(-470.579 -152.862)" fill="#fff"/>
      <path id="Path_8621" data-name="Path 8621" d="M588.18,347h-3.6a1.152,1.152,0,0,0,1.222.791,1.609,1.609,0,0,0,1.143-.431l.879.95a3.007,3.007,0,0,1-5.029-1.767,2.567,2.567,0,0,1,2.734-2.55,2.479,2.479,0,0,1,2.638,2.576C588.25,346.688,588.188,346.856,588.18,347Zm-3.631-.923h2.031a1.029,1.029,0,0,0-2.031,0Z" transform="translate(-471.453 -152.862)" fill="#fff"/>
      <path id="Path_8622" data-name="Path 8622" d="M551.809,192.421H550.34v2.523h-2.69v-9.5h4.343c2.594,0,4.229,1.345,4.229,3.517a3.156,3.156,0,0,1-1.864,3l2.049,2.989h-2.875Zm0-4.862h-1.495v2.77h1.495c1.108,0,1.671-.51,1.671-1.38s-.536-1.389-1.644-1.389Z" transform="translate(-467.209 -133.715)" fill="#263238"/>
      <path id="Path_8623" data-name="Path 8623" d="M566.353,192.2h-5.346a1.688,1.688,0,0,0,1.758,1.178,2.339,2.339,0,0,0,1.7-.642l1.354,1.416a3.957,3.957,0,0,1-3.13,1.2c-2.638,0-4.317-1.618-4.317-3.816a3.8,3.8,0,0,1,4.044-3.789,3.693,3.693,0,0,1,3.939,3.816A2.24,2.24,0,0,1,566.353,192.2Zm-5.39-1.363h3.016a1.53,1.53,0,0,0-3.016,0Z" transform="translate(-468.504 -133.992)" fill="#263238"/>
      <path id="Path_8624" data-name="Path 8624" d="M568.19,194.58l.774-1.758a5.275,5.275,0,0,0,2.567.677c.879,0,1.152-.193,1.152-.5,0-.994-4.343.132-4.343-2.814,0-1.38,1.275-2.444,3.587-2.444a6.48,6.48,0,0,1,2.9.624l-.774,1.758a4.308,4.308,0,0,0-2.119-.536c-.879,0-1.178.237-1.178.51,0,1.02,4.335-.079,4.335,2.84,0,1.354-1.248,2.418-3.64,2.418A6.77,6.77,0,0,1,568.19,194.58Z" transform="translate(-469.69 -133.993)" fill="#263238"/>
      <path id="Path_8625" data-name="Path 8625" d="M584.713,192.2h-5.346a1.7,1.7,0,0,0,1.758,1.178,2.339,2.339,0,0,0,1.7-.642l1.363,1.416a3.983,3.983,0,0,1-3.139,1.2c-2.638,0-4.317-1.618-4.317-3.816a3.8,3.8,0,0,1,4.044-3.789,3.693,3.693,0,0,1,3.939,3.816A2.238,2.238,0,0,1,584.713,192.2Zm-5.39-1.363h3.016a1.442,1.442,0,0,0-1.5-1.257A1.468,1.468,0,0,0,579.324,190.834Z" transform="translate(-470.721 -133.992)" fill="#263238"/>
      <path id="Path_8626" data-name="Path 8626" d="M592.2,194.713a3.464,3.464,0,0,1-1.758.422c-1.89,0-2.989-.879-2.989-2.814v-2.471H586.38v-1.926h1.073V186h2.576v1.917h1.688v1.926h-1.688v2.444a.747.747,0,0,0,.774.879,1.415,1.415,0,0,0,.791-.229Z" transform="translate(-471.887 -133.783)" fill="#263238"/>
      <path id="Path_8627" data-name="Path 8627" d="M515.033,208.873v3.411h-2.69v-3.455l-3.622-6.049h2.831l2.26,3.772,2.251-3.772H518.7Z" transform="translate(-462.508 -135.809)" fill="#263238"/>
      <path id="Path_8628" data-name="Path 8628" d="M519.22,208.869a4.169,4.169,0,1,1,4.15,3.816A3.847,3.847,0,0,1,519.22,208.869Zm5.7,0a1.556,1.556,0,1,0-.722,1.484,1.556,1.556,0,0,0,.722-1.484Z" transform="translate(-463.776 -136.087)" fill="#263238"/>
      <path id="Path_8629" data-name="Path 8629" d="M537.759,205.215v7.359h-2.488v-.791a2.9,2.9,0,0,1-2.189.879c-1.759,0-3.121-1.037-3.121-3.367V205.18h2.576v3.693c0,1.143.448,1.583,1.222,1.583s1.389-.5,1.389-1.758V205.18Z" transform="translate(-465.073 -136.099)" fill="#263238"/>
      <path id="Path_8630" data-name="Path 8630" d="M545.645,205.079V207.4a4.9,4.9,0,0,0-.58-.044,1.609,1.609,0,0,0-1.759,1.82v3.385H540.73V205.2h2.453v.879a3.007,3.007,0,0,1,2.462-1Z" transform="translate(-466.374 -136.086)" fill="#263238"/>
      <path id="Path_8631" data-name="Path 8631" d="M560.762,206.3c0,2.154-1.635,3.517-4.229,3.517H554.88V212.3h-2.69V202.78h4.343C559.127,202.78,560.762,204.125,560.762,206.3Zm-2.717,0c0-.879-.563-1.4-1.671-1.4H554.88v2.778h1.539C557.483,207.677,558.046,207.167,558.046,206.3Z" transform="translate(-467.758 -135.809)" fill="#263238"/>
      <path id="Path_8632" data-name="Path 8632" d="M570.044,208.469v4.088h-2.4v-.95a2.251,2.251,0,0,1-2.18,1.073c-1.758,0-2.743-.994-2.743-2.268s.994-2.2,3.279-2.2h1.46c0-.747-.536-1.169-1.556-1.169a3.455,3.455,0,0,0-2,.633l-.879-1.758a6.216,6.216,0,0,1,3.244-.879C568.672,205.075,570.044,206.13,570.044,208.469Zm-2.585,1.758v-.642h-1.108c-.826,0-1.125.3-1.125.747s.352.747.958.747a1.266,1.266,0,0,0,1.275-.888Z" transform="translate(-469.029 -136.082)" fill="#263238"/>
      <path id="Path_8633" data-name="Path 8633" d="M572.24,211.921l.774-1.758a5.152,5.152,0,0,0,2.567.686c.879,0,1.152-.193,1.152-.5,0-.994-4.343.132-4.343-2.814,0-1.389,1.275-2.444,3.578-2.444a6.488,6.488,0,0,1,2.91.624l-.774,1.758a4.344,4.344,0,0,0-2.119-.545c-.879,0-1.178.246-1.178.519,0,1.02,4.326-.079,4.326,2.84,0,1.354-1.248,2.418-3.64,2.418a6.726,6.726,0,0,1-3.253-.783Z" transform="translate(-470.179 -136.088)" fill="#263238"/>
      <path id="Path_8634" data-name="Path 8634" d="M580.69,211.921l.774-1.758a5.144,5.144,0,0,0,2.559.686c.879,0,1.161-.193,1.161-.5,0-.994-4.343.132-4.343-2.814,0-1.389,1.275-2.444,3.578-2.444a6.515,6.515,0,0,1,2.91.624l-.774,1.758a4.4,4.4,0,0,0-2.119-.545c-.879,0-1.187.246-1.187.519,0,1.02,4.335-.079,4.335,2.84,0,1.354-1.248,2.418-3.64,2.418A6.708,6.708,0,0,1,580.69,211.921Z" transform="translate(-471.199 -136.088)" fill="#263238"/>
      <path id="Path_8635" data-name="Path 8635" d="M601.714,205.216l-2.638,7.359h-2.5l-1.372-4.036-1.433,4.009h-2.5l-2.638-7.359h2.444l1.5,4.449,1.556-4.449h2.207l1.521,4.493,1.556-4.493Z" transform="translate(-472.16 -136.1)" fill="#263238"/>
      <path id="Path_8636" data-name="Path 8636" d="M603.65,208.869a4.169,4.169,0,1,1,4.159,3.816A3.849,3.849,0,0,1,603.65,208.869Zm5.706,0a1.547,1.547,0,1,0-.371,1.233,1.556,1.556,0,0,0,.371-1.233Z" transform="translate(-473.972 -136.087)" fill="#263238"/>
      <path id="Path_8637" data-name="Path 8637" d="M619.392,205.079V207.4a4.911,4.911,0,0,0-.589-.044,1.6,1.6,0,0,0-1.759,1.82v3.385H614.46V205.2h2.462v.879a2.989,2.989,0,0,1,2.471-1Z" transform="translate(-475.278 -136.086)" fill="#263238"/>
      <path id="Path_8638" data-name="Path 8638" d="M628.958,202.13v10.076h-2.453v-.739a2.638,2.638,0,0,1-2.163.879,3.807,3.807,0,0,1,0-7.605,2.717,2.717,0,0,1,2.04.756v-3.35Zm-2.541,6.383a1.556,1.556,0,1,0-1.53,1.758,1.539,1.539,0,0,0,1.53-1.758Z" transform="translate(-476.034 -135.731)" fill="#263238"/>
    </g>
    <g id="freepik--Padlock--inject-47" transform="translate(627.791 402.427)">
      <path id="Path_8639" data-name="Path 8639" d="M593.821,128.738l-6.946-1.442L595.667,85a9.275,9.275,0,0,0-1.372-6.366c-11.069-15.325-29.076-9.1-31.837,4.141l-7.913,37.807-6.946-1.451,8.871-42.572a15.149,15.149,0,0,1,7.852-10.366c22.368-11.527,41.139,6.392,37.315,24.759Z" transform="translate(-530.581 -62.549)" fill="#e0e0e0"/>
      <path id="Path_8640" data-name="Path 8640" d="M593.826,128.739s.044-.264.149-.756.246-1.24.44-2.2l1.758-8.414c.756-3.649,1.671-8.106,2.734-13.285l1.758-8.282c.545-2.937,1.451-6.014,1.486-9.337a22.929,22.929,0,0,0-2.163-10.076c-.193-.4-.378-.826-.58-1.231l-.7-1.187a23.58,23.58,0,0,0-1.574-2.295c-.281-.387-.615-.721-.923-1.081a9.882,9.882,0,0,0-.967-1.046,21.489,21.489,0,0,0-2.18-1.9,23.562,23.562,0,0,0-5.082-3.033l-1.416-.528-.8-.264-.739-.193-1.486-.387c-.51-.114-1.02-.167-1.53-.255A23.315,23.315,0,0,0,556.3,79.23c-.642,2.242-1.055,4.59-1.556,6.928-1.952,9.381-3.983,19.1-6.049,29.015-.281,1.328-.554,2.638-.827,3.965l-.132-.2,6.946,1.451-.193.132c1.565-7.517,3.1-14.877,4.59-21.981q1.117-5.355,2.207-10.551l1.073-5.152a18.463,18.463,0,0,1,1.829-4.871,16.8,16.8,0,0,1,7.315-6.788c.378-.167.739-.369,1.134-.5l1.161-.4a17.43,17.43,0,0,1,2.374-.536,17.112,17.112,0,0,1,2.409-.193,9.073,9.073,0,0,1,1.2.053h.589l.589.1a16.522,16.522,0,0,1,4.484,1.275,17.7,17.7,0,0,1,3.842,2.409,16.793,16.793,0,0,1,4.95,7.1,15.923,15.923,0,0,1,.818,8.089l-.158.976c-.062.317-.132.633-.193.95l-.4,1.882c-.264,1.24-.519,2.453-.765,3.649-1,4.765-1.926,9.153-2.752,13.1-1.67,7.913-2.972,14.068-3.833,18.191l-.044-.062,5.275,1.117,1.284.281.422.1-.413-.079-1.275-.246-5.275-1.073h0v-.053l3.745-18.2c.818-3.957,1.758-8.344,2.717-13.118.246-1.187.5-2.409.756-3.649.123-.615.255-1.249.387-1.873.07-.317.132-.633.2-.958s.1-.642.149-.958a15.686,15.686,0,0,0-.818-7.966,16.511,16.511,0,0,0-4.889-6.972,17.452,17.452,0,0,0-3.8-2.365,16.563,16.563,0,0,0-4.4-1.249l-.58-.088h-.589a8.652,8.652,0,0,0-1.169,0,16.889,16.889,0,0,0-4.7.721l-1.143.4a10.373,10.373,0,0,0-1.108.492,16.407,16.407,0,0,0-7.175,6.673,17.648,17.648,0,0,0-1.758,4.774q-.528,2.559-1.073,5.152-1.081,5.2-2.2,10.551l-4.581,21.981v.167h-.167l-6.946-1.451h-.158v-.167c.273-1.31.545-2.638.826-3.965,2.075-9.944,4.1-19.66,6.058-29.015.5-2.348.879-4.678,1.565-6.964a25.35,25.35,0,0,1,3.033-6.313,23.716,23.716,0,0,1,23.071-10.12c.519.088,1.037.149,1.547.255l1.758.457.941.3,1.407.528.651.273a23.633,23.633,0,0,1,4.827,2.928,24.249,24.249,0,0,1,2.2,1.925q.416.453.791.941c.308.369.651.7.923,1.09a23.8,23.8,0,0,1,1.6,2.33l.7,1.2c.211.413.387.879.589,1.248a23.15,23.15,0,0,1,2.154,10.19c0,3.359-.958,6.445-1.512,9.39s-1.2,5.715-1.759,8.309c-1.09,5.179-2.04,9.672-2.8,13.285s-1.372,6.462-1.758,8.379l-.466,2.172C593.887,128.5,593.826,128.739,593.826,128.739Z" transform="translate(-530.586 -62.55)" fill="#263238"/>
      <path id="Path_8641" data-name="Path 8641" d="M0,0H63.384a3.288,3.288,0,0,1,3.288,3.288V51.347a2.989,2.989,0,0,1-2.989,2.989H0V0Z" transform="translate(14.02 30.242) rotate(11.77)" fill="#455a64"/>
      <g id="Group_1656" data-name="Group 1656" transform="translate(2.969 30.292)" opacity="0.3">
        <path id="Path_8642" data-name="Path 8642" d="M0,0H63.05a3.622,3.622,0,0,1,3.622,3.622V51.013a3.323,3.323,0,0,1-3.323,3.323H0V0Z" transform="translate(11.084 0) rotate(11.77)"/>
      </g>
      <path id="Path_8643" data-name="Path 8643" d="M3.534,0H58.205a3.57,3.57,0,0,1,3.57,3.57v46.4a4.4,4.4,0,0,1-4.4,4.4H3.693A3.693,3.693,0,0,1,0,50.67V3.57A3.57,3.57,0,0,1,3.535,0Z" transform="translate(11.089 29.633) rotate(11.77)" fill="#455a64"/>
      <g id="Group_1657" data-name="Group 1657" transform="translate(27.245 50.497)" opacity="0.3">
        <path id="Path_8644" data-name="Path 8644" d="M577.149,129.107a7.588,7.588,0,0,0-6.1-9.021,7.685,7.685,0,0,0-8.74,5.864,7.57,7.57,0,0,0,3.913,8.3l-6.99,9.241,12.758,2.9-1.758-11.3A7.561,7.561,0,0,0,577.149,129.107Z" transform="translate(-559.23 -119.983)"/>
      </g>
      <path id="Path_8645" data-name="Path 8645" d="M598.29,159.771c-.088,0,1.811-9.285,4.238-20.7s4.475-20.662,4.563-20.644-1.811,9.293-4.238,20.723S598.378,159.789,598.29,159.771Z" transform="translate(-536.702 -69.298)" fill="#263238"/>
      <path id="Path_8646" data-name="Path 8646" d="M588.356,108.164c0,.088-8.2-1.433-18.279-3.394s-18.244-3.622-18.226-3.71,8.2,1.424,18.288,3.385S588.373,108.041,588.356,108.164Z" transform="translate(-531.094 -67.199)" fill="#fff"/>
      <path id="Path_8647" data-name="Path 8647" d="M561.429,129.812a2.541,2.541,0,0,1-.211-.528,6.835,6.835,0,0,1-.281-1.521,8.608,8.608,0,0,1,1.1-4.95,8.7,8.7,0,0,1,3.719-3.447,7.8,7.8,0,0,1,1.459-.528,1.758,1.758,0,0,1,.563-.079c0,.062-.783.22-1.917.818a8.792,8.792,0,0,0-4.686,8.168C561.217,129.029,561.49,129.794,561.429,129.812Z" transform="translate(-532.188 -69.337)" fill="#fff"/>
      <path id="Path_8648" data-name="Path 8648" d="M563.786,135.793c-.062.07-.466-.2-.879-.607s-.73-.783-.668-.879.466.211.879.607A2.48,2.48,0,0,1,563.786,135.793Z" transform="translate(-532.348 -71.213)" fill="#fff"/>
      <path id="Path_8649" data-name="Path 8649" d="M582.145,64.7s-.457,0-1.284-.088a22.024,22.024,0,0,0-3.517.062,20.4,20.4,0,0,0-17.312,13.285,21.976,21.976,0,0,0-.958,3.359c-.158.809-.229,1.266-.255,1.266a1.41,1.41,0,0,1,0-.334,3.358,3.358,0,0,1,.114-.958,19.132,19.132,0,0,1,.879-3.411,20.125,20.125,0,0,1,17.532-13.443,18.463,18.463,0,0,1,3.517.053,5.7,5.7,0,0,1,.95.132,1.2,1.2,0,0,1,.334.079Z" transform="translate(-531.934 -62.769)" fill="#fff"/>
      <path id="Path_8650" data-name="Path 8650" d="M557.15,91.01a6,6,0,0,1,.264-1.969,5.989,5.989,0,0,1,.58-1.89,5.828,5.828,0,0,1-.255,1.961,5.872,5.872,0,0,1-.589,1.9Z" transform="translate(-531.734 -65.52)" fill="#fff"/>
    </g>
    <path id="Path_8689" data-name="Path 8689" d="M163.834,269.6s5.451.3,8.792,2.409,8.792,5.4,11.034,9.469c1.029,1.873-1.9,2.268-3.35,1.187s-3.658-3.139-4.757-3.385l-1.1-.255a73.315,73.315,0,0,0,3.35,6.647c1.134,1.758,2.119,4.677-1.292,4.809,0,0-2.295,2.989-4.616.774,0,0-1.811,2.717-4.73-1.046,0,0-1.706,2.154-2.409,1.328s-3.033-2.128-3.71-4.818a97.494,97.494,0,0,0-3.517-9.223Z" transform="translate(171.179 314.873)" fill="#ecf3fb"/>
    <path id="Path_8690" data-name="Path 8690" d="M302.055,178.178c.607,0,25.568-2.638,25.568-2.638s2.119-10.146,2-12.784-1.89-20.09-1.89-20.09l9.346-4.4s12.494,42.133,9.768,45.632a27.333,27.333,0,0,1-8.291,6.656c-.44.018-24.188,10.551-40.708,5.073S302.055,178.178,302.055,178.178Z" transform="translate(155.004 330.733)" fill="#ecf3fb"/>
    <path id="Path_8691" data-name="Path 8691" d="M278.63,204.55c3.675,3.649,10.006,6.682,20.574,4.044,20.891-5.223,36.55-9.672,42.775-13.013s3.8-18.27,4.326-18.947c1.574-2.04-.158-6.418-2.4-7.1-6.392-1.934-17.514-1.169-18.077-.589-3.28,3.447-.29,7.632-.29,7.632l-27.546,3.614a46.106,46.106,0,0,0-10.12.642" transform="translate(156.554 327.108)" fill="#455a64"/>
    <path id="Path_8692" data-name="Path 8692" d="M287.87,180.8l.659-.141c.44-.079,1.09-.193,1.952-.3a45.289,45.289,0,0,1,7.517-.317h0l27.537-3.693-.132.308a7.377,7.377,0,0,1-1.266-4.528,5.276,5.276,0,0,1,.791-2.339,7.485,7.485,0,0,1,.756-1,1.424,1.424,0,0,1,.36-.193l.317-.079c.211-.053.413-.07.615-.114a54.609,54.609,0,0,1,10.278-.211,35.341,35.341,0,0,1,5.346.739c.44.1.879.229,1.336.343a3.306,3.306,0,0,1,1.257.739,6.155,6.155,0,0,1,1.556,2.392,6.04,6.04,0,0,1,.36,2.857,3.518,3.518,0,0,1-.554,1.407c-.079.088-.07.325-.079.554v.7c.062,1.89.149,3.816.1,5.75a24.444,24.444,0,0,1-1.328,8.071,7.992,7.992,0,0,1-2.286,3.367,7.851,7.851,0,0,1-1.758,1.038c-.58.308-1.2.545-1.758.826-2.409,1.029-4.827,1.873-7.21,2.638s-4.721,1.5-7.034,2.18c-9.2,2.638-17.585,4.774-24.566,6.524a47.281,47.281,0,0,1-5.064,1.046,27.171,27.171,0,0,1-4.616.246,19.247,19.247,0,0,1-7.2-1.565,16.573,16.573,0,0,1-3.957-2.462,10.3,10.3,0,0,1-1.178-1.117s.4.387,1.24,1.046a17.223,17.223,0,0,0,3.974,2.374,19.44,19.44,0,0,0,7.131,1.468,26.745,26.745,0,0,0,4.563-.281A47.945,47.945,0,0,0,300.557,208c7.034-1.758,15.351-3.921,24.522-6.612,2.295-.677,4.634-1.4,7.034-2.189s4.783-1.627,7.166-2.638c.58-.273,1.187-.51,1.758-.818a7.694,7.694,0,0,0,1.644-.985,7.482,7.482,0,0,0,2.154-3.174,24.221,24.221,0,0,0,1.275-7.957c.053-1.926,0-3.833-.1-5.733v-1.1a1.056,1.056,0,0,1,0-.211,1.251,1.251,0,0,1,.07-.158l.044-.07a2.892,2.892,0,0,0,.475-1.2,5.5,5.5,0,0,0-.343-2.638,5.7,5.7,0,0,0-1.424-2.216,2.883,2.883,0,0,0-1.09-.642c-.44-.114-.879-.237-1.31-.343a35.067,35.067,0,0,0-5.275-.73,53.457,53.457,0,0,0-10.173.193,2.308,2.308,0,0,0-.6.105l-.281.062a1.09,1.09,0,0,0-.176.088,6.541,6.541,0,0,0-.712.932,4.713,4.713,0,0,0-.739,2.154,7.034,7.034,0,0,0,1.178,4.264l.176.273h-.308l-27.555,3.517h0a47.476,47.476,0,0,0-7.482.211c-.879.088-1.521.185-1.961.246A2.451,2.451,0,0,0,287.87,180.8Z" transform="translate(156.555 327.138)" fill="#263238"/>
    <path id="Path_8693" data-name="Path 8693" d="M.009,0H23.08V242.879a10.551,10.551,0,0,1-10.551,10.551H10.551A10.551,10.551,0,0,1,0,242.879V0Z" transform="translate(369.845 536.579) rotate(-119.1)" fill="#529ae4"/>
    <path id="Path_8694" data-name="Path 8694" d="M0,0H53.431A1.969,1.969,0,0,1,55.4,1.969V15.615a1.969,1.969,0,0,1-1.969,1.969H0V0Z" transform="translate(547.797 429.959) rotate(-119.1)" fill="#529ae4"/>
    <rect id="Rectangle_2922" data-name="Rectangle 2922" width="44.639" height="17.585" rx="3.24" transform="translate(517.002 444.734) rotate(-119.1)" fill="#529ae4"/>
    <rect id="Rectangle_2923" data-name="Rectangle 2923" width="24.108" height="27.309" transform="translate(525.124 427.298) rotate(-119.1)" fill="#529ae4"/>
    <path id="Path_8695" data-name="Path 8695" d="M403.813,59.86c.062.106-41.588,23.405-93.005,52.033s-93.2,51.751-93.2,51.637,41.579-23.405,93.014-52.042S403.752,59.746,403.813,59.86Z" transform="translate(163.923 340.203)" fill="#263238"/>
    <path id="Path_8696" data-name="Path 8696" d="M105.444,248.136c15.65,28.135,48.648,39.565,73.706,25.63s32.707-48.05,17.057-76.15-48.639-39.565-73.706-25.63S89.8,220.035,105.444,248.136Zm77.188-42.959c10.964,19.695,5.609,43.583-11.958,53.352s-40.682,1.758-51.646-17.954-5.609-43.583,11.949-53.36S171.668,185.482,182.632,205.177Z" transform="translate(178.45 327.378)" fill="#529ae4"/>
    <rect id="Rectangle_2924" data-name="Rectangle 2924" width="35.275" height="12.538" rx="6.269" transform="translate(408.712 522.098) rotate(-119.1)" fill="#529ae4"/>
    <rect id="Rectangle_2925" data-name="Rectangle 2925" width="35.275" height="12.538" rx="6.269" transform="translate(430.95 509.719) rotate(-119.1)" fill="#529ae4"/>
    <path id="Path_8697" data-name="Path 8697" d="M244.359,162c.114-.062,2.8,4.66,6.005,10.551s5.715,10.691,5.6,10.753-2.8-4.651-6.005-10.551S244.245,162,244.359,162Z" transform="translate(160.693 327.868)" fill="#263238"/>
    <path id="Path_8698" data-name="Path 8698" d="M232.75,170.25c.114-.062,2.734,4.449,5.864,10.058s5.566,10.225,5.46,10.287-2.734-4.449-5.829-10.014S232.644,170.311,232.75,170.25Z" transform="translate(162.095 326.871)" fill="#263238"/>
    <path id="Path_8699" data-name="Path 8699" d="M269.81,148.07c.114-.062,2.849,4.634,6.111,10.489s5.812,10.665,5.7,10.727-2.84-4.642-6.1-10.5S269.7,148.131,269.81,148.07Z" transform="translate(157.619 329.55)" fill="#263238"/>
    <path id="Path_8700" data-name="Path 8700" d="M257.6,155.44c.105-.062,2.787,4.607,5.97,10.428s5.689,10.551,5.574,10.647-2.778-4.607-5.97-10.428S257.485,155.5,257.6,155.44Z" transform="translate(159.094 328.66)" fill="#263238"/>
    <path id="Path_8701" data-name="Path 8701" d="M327.126,116.494a4.15,4.15,0,0,0,1.758-8.071,4.326,4.326,0,0,0-3.754-7.3,5.179,5.179,0,0,0-7.79-4.255,5.82,5.82,0,0,0-7.166-.158,4.141,4.141,0,0,0-3.666,7.034" transform="translate(153.338 335.892)" fill="#263238"/>
    <path id="Path_8702" data-name="Path 8702" d="M307.895,101.53h.879a17.637,17.637,0,0,1,17.567,16.239c.659,8.52,1.275,17.936,1.2,22.508-.167,9.5-9.61,10.9-9.61,10.9l.765,11.377-22.974-.747-1.908-41.236C293.01,110.736,298.048,102.075,307.895,101.53Z" transform="translate(154.73 335.17)" fill="#ecf3fb"/>
    <path id="Path_8703" data-name="Path 8703" d="M319.648,157.5a22.974,22.974,0,0,1-12.388-3.666s3.042,7.166,12.485,6.339Z" transform="translate(153.096 328.854)" fill="#ccdef1"/>
    <path id="Path_8704" data-name="Path 8704" d="M324.539,129.98a1.345,1.345,0,0,1-1.31,1.354,1.3,1.3,0,0,1-1.389-1.222,1.363,1.363,0,0,1,1.31-1.363,1.3,1.3,0,0,1,1.389,1.231Z" transform="translate(151.335 331.883)" fill="#263238"/>
    <path id="Path_8705" data-name="Path 8705" d="M327.753,125.094c-.167.176-1.2-.58-2.638-.58s-2.523.721-2.682.545.1-.4.563-.739a3.7,3.7,0,0,1,2.145-.651,3.517,3.517,0,0,1,2.1.686C327.683,124.7,327.832,125.024,327.753,125.094Z" transform="translate(151.269 332.497)" fill="#263238"/>
    <path id="Path_8706" data-name="Path 8706" d="M309.628,129.264a1.354,1.354,0,0,1-1.319,1.38,1.3,1.3,0,0,1-1.389-1.222,1.354,1.354,0,0,1,1.31-1.363,1.3,1.3,0,0,1,1.4,1.2Z" transform="translate(153.137 331.967)" fill="#263238"/>
    <path id="Path_8707" data-name="Path 8707" d="M311.493,125.354c-.167.176-1.2-.58-2.638-.58s-2.523.721-2.682.545.1-.4.563-.739a3.7,3.7,0,0,1,2.145-.651,3.517,3.517,0,0,1,2.1.686C311.423,124.959,311.572,125.275,311.493,125.354Z" transform="translate(153.233 332.465)" fill="#263238"/>
    <path id="Path_8708" data-name="Path 8708" d="M318.1,136.176a9.408,9.408,0,0,1,2.365-.422c.369,0,.721-.105.791-.36a1.9,1.9,0,0,0-.246-1.1l-1.09-2.831c-1.512-4.036-2.638-7.35-2.444-7.4s1.521,3.156,3.033,7.183c.361.994.712,1.943,1.046,2.849a2.19,2.19,0,0,1,.185,1.46.932.932,0,0,1-.615.536,2.127,2.127,0,0,1-.624.088A9.669,9.669,0,0,1,318.1,136.176Z" transform="translate(151.865 332.45)" fill="#263238"/>
    <path id="Path_8709" data-name="Path 8709" d="M312.864,118.975c-.193.369-1.433,0-2.972-.088s-2.822.2-2.963-.185c-.062-.185.211-.51.765-.809a4.651,4.651,0,0,1,2.3-.475,4.467,4.467,0,0,1,2.224.686C312.723,118.448,312.952,118.808,312.864,118.975Z" transform="translate(153.137 333.252)" fill="#263238"/>
    <path id="Path_8710" data-name="Path 8710" d="M327.775,118.277c-.308.325-1.512,0-2.954,0s-2.638.22-2.945-.132c-.123-.167.07-.5.607-.809a4.731,4.731,0,0,1,2.4-.536,4.625,4.625,0,0,1,2.348.677C327.74,117.775,327.907,118.109,327.775,118.277Z" transform="translate(151.335 333.327)" fill="#263238"/>
    <path id="Path_8711" data-name="Path 8711" d="M325.136,113.309s-2.479-5.935-5.337-7.324c-3.455-1.688-4.95,2.1-8.247,1.169s-6.594-2.541-9.97,0c-3.693,2.778-1.969,4.739-2.216,8.942-.967,17.022-4.1,21.822-4.95,13.8-.1-.879-2.532-1.583-2.884-5.275-.457-4.809-.624-10.656.466-14.068.879-2.875,2.559-4.862,5.5-7.034,4.66-3.447,11.043-3.517,15.378-3.051S325.549,105.888,325.136,113.309Z" transform="translate(155.038 335.323)" fill="#263238"/>
    <path id="Path_8712" data-name="Path 8712" d="M294.661,133.327a2.567,2.567,0,0,0-2.761-2.488c-1.758.167-3.737,1.161-3.631,4.809.185,6.471,6.647,4.95,6.656,4.757S294.767,136.035,294.661,133.327Z" transform="translate(155.39 331.632)" fill="#e0eaf5"/>
    <path id="Path_8713" data-name="Path 8713" d="M293.743,138.3a1.432,1.432,0,0,1-.3.176,1.134,1.134,0,0,1-.835.044,2.778,2.778,0,0,1-1.363-2.471,3.709,3.709,0,0,1,.264-1.618,1.292,1.292,0,0,1,.826-.879.572.572,0,0,1,.677.29c.088.176.053.308.088.317s.132-.114.07-.378a.651.651,0,0,0-.264-.4.826.826,0,0,0-.624-.149,1.583,1.583,0,0,0-1.152,1.037,3.8,3.8,0,0,0-.343,1.811,2.914,2.914,0,0,0,1.759,2.752,1.187,1.187,0,0,0,1.02-.2C293.743,138.461,293.77,138.3,293.743,138.3Z" transform="translate(155.086 331.342)" fill="#ccdef1"/>
    <path id="Path_8714" data-name="Path 8714" d="M294.874,116.788a6.155,6.155,0,0,0,2.734,1.275,2.11,2.11,0,0,0,2.348-1.477c.079-.448,0-.976.264-1.319s1.011-.281,1.547-.22c1.882.2,4.088-1.873,4.572-3.7a1.679,1.679,0,0,0,2.251.475,6.013,6.013,0,0,0,1.565-1.38,2.682,2.682,0,0,1,2.224-1.1,6.155,6.155,0,0,0,1.407.308c.879-.07,1.266-1.064,1.4-1.908s.237-1.82.958-2.277a3.4,3.4,0,0,1,2.312-.062c.783.123,1.758-.062,2-.826a1.547,1.547,0,0,0-.29-1.169,4.185,4.185,0,0,0-4.941-1.6,5.671,5.671,0,0,0-10.436-1.134,5.759,5.759,0,0,0-9.223,2.075,4.176,4.176,0,0,0-4.73,6.058,3.965,3.965,0,0,0-2.189,3.156,2.3,2.3,0,0,0,2.567,2.321A2.312,2.312,0,0,0,295.2,116.6" transform="translate(155.345 335.633)" fill="#263238"/>
    <path id="Path_8715" data-name="Path 8715" d="M315.775,104.53v.123a.992.992,0,0,1-.044.343,4.212,4.212,0,0,1-.475,1.248,4.686,4.686,0,0,1-1.433,1.521,4.326,4.326,0,0,1-2.638.747l.106-.141a2.312,2.312,0,0,1-.132,1.758,6.675,6.675,0,0,1-1.108,1.583,4.855,4.855,0,0,1-.73.747,2.418,2.418,0,0,1-3.1-.378l.237-.07a4.845,4.845,0,0,1-2.066,3.35,3.517,3.517,0,0,1-2.128.695,6.541,6.541,0,0,1-2.093-.466l.176-.079a5.126,5.126,0,0,1-1.539,2,2.708,2.708,0,0,1-2.251.607,3.57,3.57,0,0,1-2.743-2.8l.149.07a3.4,3.4,0,0,1-2.224.317,3.666,3.666,0,0,1-1.547-.695,3.226,3.226,0,0,1-.721-.791,1.161,1.161,0,0,1-.158-.343,3.8,3.8,0,0,0,.941,1.046,3.517,3.517,0,0,0,1.512.624,3.148,3.148,0,0,0,2.1-.334l.123-.07v.141a3.341,3.341,0,0,0,2.585,2.585,2.471,2.471,0,0,0,2.049-.571,4.853,4.853,0,0,0,1.442-1.89l.053-.114h.123a6.2,6.2,0,0,0,2,.44,3.262,3.262,0,0,0,1.969-.642,4.6,4.6,0,0,0,1.952-3.156v-.308l.2.237a2.092,2.092,0,0,0,1.838.668,2.057,2.057,0,0,0,.879-.334,4.281,4.281,0,0,0,.686-.695,6.445,6.445,0,0,0,1.09-1.512,2.1,2.1,0,0,0,.141-1.618l-.053-.158h.167a4.15,4.15,0,0,0,2.541-.677,4.607,4.607,0,0,0,1.424-1.451A4.853,4.853,0,0,0,315.775,104.53Z" transform="translate(155.264 334.808)" fill="#455a64"/>
    <path id="Path_8716" data-name="Path 8716" d="M317.459,142.825c-.053-.237-1.627.149-3.086-.923s-1.7-2.8-1.917-2.752-.22.457-.062,1.169a4.036,4.036,0,0,0,1.521,2.321,3.517,3.517,0,0,0,2.55.668C317.142,143.2,317.494,142.931,317.459,142.825Z" transform="translate(152.49 330.627)" fill="#263238"/>
    <path id="Path_8717" data-name="Path 8717" d="M370.822,423.12l6.243,21.269s23.739.791,25.26,4.616L361.476,462.58l-11.1-32.751Z" transform="translate(147.889 296.332)" fill="#455a64"/>
    <path id="Path_8718" data-name="Path 8718" d="M365.608,450.045a1.759,1.759,0,0,0-.519,2.286,1.688,1.688,0,0,0,2.26.536,1.855,1.855,0,0,0,.536-2.427,1.758,1.758,0,0,0-2.418-.3" transform="translate(146.139 293.111)" fill="#e0e0e0"/>
    <path id="Path_8719" data-name="Path 8719" d="M401.41,450.808s2.084.185,2.3,1.539l-40.849,13.575-.985-3.35,39.5-11.782" transform="translate(146.5 292.99)" fill="#263238"/>
    <path id="Path_8720" data-name="Path 8720" d="M380.984,446.811c.062.2-.879.624-1.67,1.591s-1.011,1.978-1.222,1.961-.29-1.266.659-2.418S380.967,446.617,380.984,446.811Z" transform="translate(144.558 293.479)" fill="#fff"/>
    <path id="Path_8721" data-name="Path 8721" d="M386.673,447.2c.114.185-.633.809-1.037,1.873s-.29,2.031-.492,2.084-.7-1.029-.185-2.348S386.612,447.02,386.673,447.2Z" transform="translate(143.74 293.428)" fill="#fff"/>
    <path id="Path_8722" data-name="Path 8722" d="M391.561,451.578c-.167.105-.774-.8-.624-2.057s.932-2.013,1.073-1.873-.246.879-.352,1.952S391.754,451.472,391.561,451.578Z" transform="translate(142.993 293.372)" fill="#fff"/>
    <path id="Path_8723" data-name="Path 8723" d="M378.6,441.452c0,.211-1.029.237-2.128.686s-1.864,1.1-2.022.967.448-1.125,1.758-1.644S378.649,441.259,378.6,441.452Z" transform="translate(144.985 294.151)" fill="#fff"/>
    <path id="Path_8724" data-name="Path 8724" d="M260.825,422.236l-8.889,20.31s17.664,15.826,16.389,19.765l-40-15.826,12.547-32.215Z" transform="translate(162.63 297.401)" fill="#455a64"/>
    <path id="Path_8725" data-name="Path 8725" d="M241.632,438.9a1.758,1.758,0,0,0-1.864,1.416,1.7,1.7,0,0,0,1.389,1.864,1.864,1.864,0,0,0,1.969-1.512c0-.879-.8-1.882-1.662-1.758" transform="translate(161.249 294.427)" fill="#e0e0e0"/>
    <path id="Path_8726" data-name="Path 8726" d="M267.542,463.64s1.477,1.486.783,2.638l-40-15.826,1.4-3.192,37.807,16.354" transform="translate(162.63 293.417)" fill="#263238"/>
    <path id="Path_8727" data-name="Path 8727" d="M255.379,446.4c-.079.193-1.09-.106-2.3.141s-2.049.879-2.2.721.589-1.161,2.057-1.433S255.5,446.236,255.379,446.4Z" transform="translate(159.908 293.597)" fill="#fff"/>
    <path id="Path_8728" data-name="Path 8728" d="M259.475,450.314c0,.2-1,.2-2,.765s-1.521,1.363-1.758,1.284.123-1.24,1.363-1.917S259.545,450.129,259.475,450.314Z" transform="translate(159.329 293.08)" fill="#fff"/>
    <path id="Path_8729" data-name="Path 8729" d="M260.449,456.743c-.193,0-.079-1.108.879-1.978s2-.941,2.022-.747-.774.545-1.521,1.275S260.651,456.8,260.449,456.743Z" transform="translate(158.759 292.611)" fill="#fff"/>
    <path id="Path_8730" data-name="Path 8730" d="M257.148,440.756c-.149.141-.941-.475-2.075-.879s-2.128-.352-2.163-.554,1.064-.58,2.392-.141S257.306,440.615,257.148,440.756Z" transform="translate(159.66 294.417)" fill="#fff"/>
    <path id="Path_8731" data-name="Path 8731" d="M276.335,296.43,262.32,353.281s-25.278,42.555-29.56,63.85l23.124,9.091s16.82-41.016,21.752-48.542a60.606,60.606,0,0,1,7.614-9.381,14.638,14.638,0,0,0,3.842-6.647L299.7,321.092Z" transform="translate(162.094 311.632)" fill="#455a64"/>
    <path id="Path_8732" data-name="Path 8732" d="M275.53,283.555s1.952,15.228,16.609,21.981l30.879,50.292a205.658,205.658,0,0,0,7.034,30.131c4.616,13.777,13.945,40.33,13.945,40.33l25.4-9.5L353.21,361.455l-2.638-19.194-25.2-64.184L303.727,265.1Z" transform="translate(156.928 315.416)" fill="#455a64"/>
    <path id="Path_8733" data-name="Path 8733" d="M275.53,283.537l.466-.316,1.4-.932,5.486-3.622,20.8-13.672.07-.044.07.044,21.664,12.951h0V278l25.251,64.122v.044c.835,6.067,1.758,12.564,2.638,19.194h0c4.4,14.947,9.056,30.94,13.874,47.417q1.169,3.983,2.321,7.913l.062.2-.2.07-25.4,9.5-.22.079-.07-.22c-4.4-12.758-8.652-25.04-12.67-36.69-1.011-2.91-2-5.794-2.831-8.678s-1.574-5.75-2.251-8.581c-1.336-5.662-2.409-11.193-3.253-16.556v.07l-30.7-50.31.053.044a28.671,28.671,0,0,1-9.672-7.368,30.464,30.464,0,0,1-4.748-7.614,31.322,31.322,0,0,1-1.759-5.275c-.149-.6-.237-1.064-.29-1.38s-.062-.475-.062-.475a1.758,1.758,0,0,0,.1.466c.1.308.149.774.316,1.38a32.185,32.185,0,0,0,1.811,5.205,30.677,30.677,0,0,0,4.765,7.535,28.707,28.707,0,0,0,9.672,7.28h0l30.94,50.257h0v.044c.879,5.346,1.934,10.867,3.271,16.521.677,2.822,1.416,5.68,2.251,8.555s1.82,5.741,2.831,8.652c4.036,11.65,8.282,23.933,12.7,36.681l-.29-.132,25.4-9.5-.141.273q-1.143-3.93-2.321-7.913L353,361.384h0c-.879-6.629-1.811-13.127-2.638-19.194v.053l-25.155-64.184.07.079-21.629-13h.132l-20.8,13.61-5.539,3.57-1.424.923Z" transform="translate(156.928 315.434)" fill="#455a64"/>
    <path id="Path_8734" data-name="Path 8734" d="M288.563,161.722s-7.4,5.7-11,12.063c-4.308,7.623-4.774,18.921-4.906,36.47-.132,16.231,2.295,20.741,1.363,26.86-1.838,11.949-3.2,52.05-3.2,52.05s23.739-9.118,28.346-13.188l4.634-4.027,29.709,9.821-6-36.506-4.115-45.5-5.275-24.135-.879-9.469L291.728,155.91Z" transform="translate(157.497 328.603)" fill="#5f727b"/>
    <path id="Path_8735" data-name="Path 8735" d="M318.745,166.4c.308.062-.73,2.145-2.559,5.205l-.079.123-.141-.053c-2.576-1-5.988-2.26-9.715-3.622-4.2-1.53-8-2.954-10.718-4.062-1.363-.554-2.453-1.02-3.2-1.363a7.217,7.217,0,0,1-1.143-.563,6.26,6.26,0,0,1,1.213.4l3.244,1.222,10.762,3.93c3.728,1.363,7.131,2.638,9.672,3.728l-.211.07C317.787,168.427,318.921,166.449,318.745,166.4Z" transform="translate(155.037 327.859)" fill="#263238"/>
    <path id="Path_8736" data-name="Path 8736" d="M355.776,141.158s-1.882-2.928-3.658-5.627-4.466-4.027-4.9-5.434-2.8-7.676-3.174-9.232a20.042,20.042,0,0,1-.457-4.59s1.943-.826,2.875,1.952c.563,1.671,2.356,7.342,2.743,7.623s.879-.132.879-.132a66.616,66.616,0,0,1-2.066-6.48c-.088-1.029.273-7.852.273-7.852a2.057,2.057,0,0,1,2.339,1.31c.923,1.758.958,6.155.958,6.155l1.4,4.906L352.5,118.9l.7-8.924a3.359,3.359,0,0,1,2.814,2.638c.589,2.409-.193,5.768.2,6.48a31.063,31.063,0,0,1,.827,5.02s.484-10.463,1.6-10.762,2.031.809,1.873,2.919-.2,6.577.378,8.546,6.533,9.672,6.049,13.048a56.661,56.661,0,0,0-.554,6.155h-10.2Z" transform="translate(148.709 334.15)" fill="#ecf3fb"/>
    <path id="Path_8737" data-name="Path 8737" d="M314.817,171.894c.572.22,24.935,6.251,24.935,6.251s5.442-8.792,6.243-11.342,5.082-19.536,5.082-19.536l10.3-.967s-2.638,43.865-6.366,46.23a27.27,27.27,0,0,1-10.058,3.429c-.387-.132-26.333,1.671-40-9.1S314.817,171.894,314.817,171.894Z" transform="translate(153.891 329.764)" fill="#ecf3fb"/>
    <g id="Group_1658" data-name="Group 1658" transform="translate(450.869 524.729)" opacity="0.3">
      <path id="Path_8738" data-name="Path 8738" d="M296.848,201.8a18.6,18.6,0,0,0,9.962,5.856c6.462,1.424,20.222,3.948,20.222,3.948l-.668-6.752-29.894-3.2" transform="translate(-296.47 -201.65)"/>
    </g>
    <path id="Path_8739" data-name="Path 8739" d="M284.56,188.63c2.216,4.678,7.139,9.672,17.963,10.806,21.427,2.216,37.649,3.394,44.656,2.339s9.795-15.888,10.551-16.345c2.18-1.372,2.04-6.084.158-7.491-5.346-4-16.064-7.034-16.784-6.709-4.264,2.119-2.875,7.078-2.875,7.078l-27.168-6a45.72,45.72,0,0,0-9.733-2.831" transform="translate(155.838 326.964)" fill="#5f727b"/>
    <path id="Path_8740" data-name="Path 8740" d="M301.335,169.48a3.828,3.828,0,0,1,.668.088c.44.088,1.1.193,1.943.378a45.288,45.288,0,0,1,7.175,2.268h0l27.151,5.908-.229.246a7.306,7.306,0,0,1,.352-4.686,5.2,5.2,0,0,1,1.53-1.934,7.088,7.088,0,0,1,1.064-.686,1.485,1.485,0,0,1,.4-.062h.325a3.7,3.7,0,0,1,.624.105,54.513,54.513,0,0,1,9.733,3.3,36.514,36.514,0,0,1,4.774,2.515c.378.246.756.519,1.134.782a3.254,3.254,0,0,1,.932,1.117,6.234,6.234,0,0,1,.651,2.778,5.961,5.961,0,0,1-.633,2.814,3.341,3.341,0,0,1-1,1.134c-.106.053-.176.281-.264.492l-.229.659c-.58,1.758-1.161,3.64-1.864,5.451a24.714,24.714,0,0,1-3.992,7.175,7.034,7.034,0,0,1-5.275,2.761c-.659.1-1.319.114-1.969.167-2.638.158-5.17.123-7.676.053s-4.959-.2-7.342-.352c-9.557-.615-18.13-1.486-25.322-2.233a46.179,46.179,0,0,1-5.117-.739,27.256,27.256,0,0,1-4.4-1.336,19.4,19.4,0,0,1-6.234-3.921,16.617,16.617,0,0,1-2.884-3.666,10.376,10.376,0,0,1-.73-1.451s.246.5.809,1.407a17.4,17.4,0,0,0,2.928,3.578,19.2,19.2,0,0,0,6.207,3.816,27.9,27.9,0,0,0,4.4,1.292,47.643,47.643,0,0,0,5.1.695c7.192.712,15.765,1.547,25.3,2.145,2.392.141,4.836.264,7.333.325s5.056.1,7.641-.053c.642-.062,1.3-.079,1.943-.176a7.033,7.033,0,0,0,1.882-.36,7.526,7.526,0,0,0,3.113-2.251,24.224,24.224,0,0,0,3.9-7.034c.7-1.758,1.275-3.614,1.855-5.425l.246-.686a1.089,1.089,0,0,1,.141-.343,1.216,1.216,0,0,1,.114-.193.7.7,0,0,1,.114-.114l.062-.053a2.857,2.857,0,0,0,.879-.976,5.469,5.469,0,0,0,.58-2.638,5.819,5.819,0,0,0-.589-2.567,2.866,2.866,0,0,0-.8-.967c-.378-.255-.739-.528-1.117-.765a35.029,35.029,0,0,0-4.713-2.488,53.965,53.965,0,0,0-9.628-3.288c-.2,0-.4-.088-.6-.106h-.484a6.764,6.764,0,0,0-.985.642,4.756,4.756,0,0,0-1.433,1.758,7.034,7.034,0,0,0-.343,4.4l.079.308-.308-.07-27.107-6.067h0a48.047,48.047,0,0,0-7.1-2.356c-.879-.2-1.486-.343-1.926-.431A3.978,3.978,0,0,0,301.335,169.48Z" transform="translate(155.829 326.964)" fill="#263238"/>
    <path id="Path_8741" data-name="Path 8741" d="M354.52,187.949a5.759,5.759,0,0,1-1.759-.765,17.376,17.376,0,0,1-3.693-2.761,18.465,18.465,0,0,1-2.884-3.6,6.365,6.365,0,0,1-.835-1.758,38.944,38.944,0,0,0,4.036,5,35.992,35.992,0,0,0,5.135,3.886Z" transform="translate(148.496 325.807)" fill="#263238"/>
  </g>
</svg>
