<svg xmlns="http://www.w3.org/2000/svg" width="420.872" height="435.622" viewBox="0 0 420.872 435.622">
  <g id="Group_1870" data-name="Group 1870" transform="translate(-233.736 -640)">
    <g id="Group_1868" data-name="Group 1868" transform="translate(0 -53.189)">
      <g id="telephone" transform="translate(181.747 654.97)">
        <g id="_07cc66ff" data-name="#07cc66ff">
          <path id="Path_13590" data-name="Path 13590" d="M269.01,41.84a67.854,67.854,0,0,1,83.16,35.12,66.49,66.49,0,0,1,6.33,33.65,68.345,68.345,0,0,1-46.8,59.96c-12.41,4.29-25.93,4.14-38.6,1.2-8.78,3.66-17.16,8.3-26.02,11.79,1.28-7.72,1.73-15.54,3.01-23.25A67.873,67.873,0,0,1,269.01,41.84M249.12,78.19a4.948,4.948,0,0,0-2.32,6.95,5.193,5.193,0,0,0,5.12,2.47c19.37-.03,38.74.02,58.11-.03a4.883,4.883,0,1,0-.02-9.76c-19.68-.03-39.36-.06-59.04.01-.46.09-1.38.27-1.85.36m1.3,19.37a4.878,4.878,0,0,0-4.02,6.36,5.194,5.194,0,0,0,5.59,3.41c25.01.02,50.02-.03,75.02.03,2.49.06,5.64.12,7.03-2.39,2.04-3.01-.42-7.59-4.07-7.46-26.51-.04-53.04-.14-79.55.05m-1.05,19.91a4.962,4.962,0,0,0-2.7,6.83,5.245,5.245,0,0,0,5.32,2.7h77.07a5.108,5.108,0,0,0,5.45-3.36,4.865,4.865,0,0,0-4.41-6.4c-25.37-.1-50.75.01-76.11-.06A19.81,19.81,0,0,0,249.37,117.47Z" fill="#032f55"/>
        </g>
        <g id="_ff5722ff" data-name="#ff5722ff">
          <path id="Path_13591" data-name="Path 13591" d="M206.55,43.64c5.61-2.58,12.26,3.98,9.78,9.61-1.57,5.07-8.77,6.58-12.38,2.83C200.11,52.53,201.55,45.34,206.55,43.64Z" fill="#529ae4"/>
          <path id="Path_13593" data-name="Path 13593" d="M461.37,88.51c4.12-2.62,10.02-.07,11.19,4.6,1.83,5.75-5.08,11.64-10.46,8.75C456.69,99.75,456.29,91.23,461.37,88.51Z" fill="#529ae4"/>
          <path id="Path_13594" data-name="Path 13594" d="M44.22,255.28c4.85-1.85,10.71,2.37,9.96,7.64.06,5.64-7.41,9.21-11.79,5.62C37.41,265.36,38.61,257.03,44.22,255.28Z" transform="translate(17 173)" fill="#529ae4"/>
          <path id="Path_13596" data-name="Path 13596" d="M452.47,368.66c5.56-2.75,12.34,3.51,10.12,9.28-1.49,5.19-8.89,7-12.51,2.99C446.27,377.48,447.66,370.46,452.47,368.66Z" fill="#529ae4"/>
        </g>
        <g id="_5cbeffff" data-name="#5cbeffff" transform="translate(-269.351 278.891)">
          <path id="Path_13598" data-name="Path 13598" d="M384.35,43.473a13.333,13.333,0,0,1,15.837,16.4,13.322,13.322,0,1,1-15.837-16.4Z" transform="translate(0)" fill="#032f55"/>
        </g>
        <g id="_5cbeffff-2" data-name="#5cbeffff" transform="translate(-91.805 214.681)">
          <path id="Path_13598-2" data-name="Path 13598" d="M380.419,43.336a8.283,8.283,0,0,1,9.839,10.189,8.276,8.276,0,1,1-9.839-10.189Z" transform="translate(0)" fill="#0a3d68"/>
        </g>
        <g id="_163eb1ff" data-name="#163eb1ff">
          <path id="Path_13601" data-name="Path 13601" d="M77.97,79.44c13.42-14.6,32.88-24.51,53-23.44,10.72-.57,21.41,2.43,30.95,7.19a69.31,69.31,0,0,1,26.67,99.41,87.722,87.722,0,0,1-12.35,14.64c-32.97-32.28-65.2-65.33-98.12-97.67Z" fill="#4383c5"/>
          <path id="Path_13602" data-name="Path 13602" d="M96.31,142.3c4.13-1.95,6.98,2.46,9.56,4.9q98.7,98.76,197.45,197.47c2.9,2.21,2.22,7.4-1.38,8.45-3.73,1.33-6.32-2.18-8.61-4.46Q194.39,249.6,95.36,150.65C92.73,148.48,93.13,143.72,96.31,142.3Z" fill="#4383c5"/>
          <path id="Path_13603" data-name="Path 13603" d="M320.43,281.52a69.227,69.227,0,0,1,96.43,45.51c5.65,21.24.26,45.18-14.2,61.79-2.34,2.48-4.75,4.91-7.06,7.42l-.27.3c-32.6-32.68-65.46-65.11-97.8-98.03C304.28,291.76,311.63,285.44,320.43,281.52Z" fill="#4383c5"/>
        </g>
        <g id="_ffffffff" data-name="#ffffffff">
          <path id="Path_13604" data-name="Path 13604" d="M249.12,78.19c.47-.09,1.39-.27,1.85-.36,19.68-.07,39.36-.04,59.04-.01a4.883,4.883,0,1,1,.02,9.76c-19.37.05-38.74,0-58.11.03a5.193,5.193,0,0,1-5.12-2.47A4.948,4.948,0,0,1,249.12,78.19Z" fill="#fff"/>
          <path id="Path_13605" data-name="Path 13605" d="M250.42,97.56c26.51-.19,53.04-.09,79.55-.05,3.65-.13,6.11,4.45,4.07,7.46-1.39,2.51-4.54,2.45-7.03,2.39-25-.06-50.01-.01-75.02-.03a5.194,5.194,0,0,1-5.59-3.41A4.878,4.878,0,0,1,250.42,97.56Z" fill="#fff"/>
          <path id="Path_13606" data-name="Path 13606" d="M249.37,117.47a19.81,19.81,0,0,1,4.62-.29c25.36.07,50.74-.04,76.11.06a4.865,4.865,0,0,1,4.41,6.4,5.108,5.108,0,0,1-5.45,3.36H251.99a5.245,5.245,0,0,1-5.32-2.7A4.962,4.962,0,0,1,249.37,117.47Z" fill="#fff"/>
        </g>
        <g id="_3256c1ff" data-name="#3256c1ff">
          <path id="Path_13607" data-name="Path 13607" d="M52.52,133.15a87.478,87.478,0,0,1,25.6-53.58c32.92,32.34,65.15,65.39,98.12,97.67q60.795,60.48,121.29,121.27c32.34,32.92,65.2,65.35,97.8,98.03-17.38,17.82-42.63,27.3-67.39,26.12-12.23-.9-24.41-3.76-35.36-9.39a92.526,92.526,0,0,1-24.16-17.68Q173.17,300.31,77.91,205.05c-18.59-18.6-28.38-45.75-25.39-71.9m43.79,9.15c-3.18,1.42-3.58,6.18-.95,8.35q98.94,99.045,197.97,198.01c2.29,2.28,4.88,5.79,8.61,4.46,3.6-1.05,4.28-6.24,1.38-8.45q-98.7-98.76-197.45-197.47C103.29,144.76,100.44,140.35,96.31,142.3Z" fill="#529ae4"/>
        </g>
        <g id="_d7e816ff" data-name="#d7e816ff">
          <path id="Path_13608" data-name="Path 13608" d="M358.5,110.61a67.867,67.867,0,0,1,61.68,118.77c1.06,7.77,1.86,15.57,2.89,23.35-8.75-3.77-17.21-8.2-25.99-11.88a83.679,83.679,0,0,1-23.71,2.07,78.682,78.682,0,0,1-29.78-10.13c-21.07-12.7-33.96-37.68-31.89-62.22a68.345,68.345,0,0,0,46.8-59.96Z" fill="#d2e5f5"/>
        </g>
        <g id="_b2dd00ff" data-name="#b2dd00ff">
          <path id="Path_13609" data-name="Path 13609" d="M343.59,232.79a78.682,78.682,0,0,0,29.78,10.13c-24.47.15-48.94.01-73.41.07a5.082,5.082,0,0,1-5.19-2.81c-1.68-2.63.31-6.4,3.17-7.1C313.15,232.74,328.39,233.35,343.59,232.79Z" fill="#b4d7f2"/>
        </g>
        <g id="_d7deedff" data-name="#d7deedff">
          <path id="Path_13610" data-name="Path 13610" d="M395.6,396.24c2.31-2.51,4.72-4.94,7.06-7.42,7.03,7.46,14.58,14.44,21.59,21.94,10.87,12.32,12.11,31.88,2.99,45.53A38.792,38.792,0,0,1,395,473.83q-83.01,0-166.04-.01c-11.9.02-22.7-10.79-21.99-22.8-.26-11.72,10.41-22.03,22.03-21.93,15.7-.02,31.41-.06,47.11.02,3.55.01,6.19,4.27,4.4,7.43a4.822,4.822,0,0,1-4.5,2.66c-15.58.16-31.16-.06-46.74.1a12.128,12.128,0,0,0-11.34,7.77c-2.39,5.27.18,11.94,5.09,14.78,2.34,1.53,5.22,1.67,7.93,1.7q78.555-.03,157.1-.01c4.32-.02,8.69.2,12.97-.58a28.065,28.065,0,0,0,14.63-46.59C409.04,409.59,402.29,402.94,395.6,396.24Z" fill="#d2e5f5"/>
        </g>
      </g>
    </g>
    <g id="Group_1869" data-name="Group 1869" transform="translate(-14.246 5.047)">
      <path id="Icon_ionic-ios-send" data-name="Icon ionic-ios-send" d="M87.933,4.7,5.571,40.593a1.888,1.888,0,0,0,.067,3.433L27.917,56.612a3.592,3.592,0,0,0,4.106-.4L75.952,18.337c.292-.247.987-.718,1.256-.449.292.292-.157.965-.4,1.256L38.8,61.952a3.58,3.58,0,0,0-.359,4.285L53,89.592a1.9,1.9,0,0,0,3.41-.045L90.468,7.186A1.888,1.888,0,0,0,87.933,4.7Z" transform="translate(297.901 949.224)" fill="#032f55"/>
      <path id="Icon_ionic-ios-send-2" data-name="Icon ionic-ios-send" d="M87.933,4.7,5.571,40.593a1.888,1.888,0,0,0,.067,3.433L27.917,56.612a3.592,3.592,0,0,0,4.106-.4L75.952,18.337c.292-.247.987-.718,1.256-.449.292.292-.157.965-.4,1.256L38.8,61.952a3.58,3.58,0,0,0-.359,4.285L53,89.592a1.9,1.9,0,0,0,3.41-.045L90.468,7.186A1.888,1.888,0,0,0,87.933,4.7Z" transform="translate(297.901 957.64)" fill="none" stroke="#b4d7f2" stroke-width="1"/>
    </g>
  </g>
</svg>
