<svg id="Group_1914" data-name="Group 1914" xmlns="http://www.w3.org/2000/svg" xmlns:xlink="http://www.w3.org/1999/xlink" width="681.744" height="242" viewBox="0 0 681.744 242">
  <defs>
    <clipPath id="clip-path">
      <rect id="Rectangle_3080" data-name="Rectangle 3080" width="75" height="237" transform="translate(0 0)" fill="#032f55"/>
    </clipPath>
  </defs>
  <g id="Group_1912" data-name="Group 1912" transform="translate(0 0)">
    <g id="Ellipse_218" data-name="Ellipse 218" transform="translate(0 9)" fill="none" stroke="#032f55" stroke-width="1">
      <ellipse cx="112" cy="112" rx="112" ry="112" stroke="none"/>
      <ellipse cx="112" cy="112" rx="111.5" ry="111.5" fill="none"/>
    </g>
    <g id="Mask_Group_11" data-name="Mask Group 11" transform="translate(0 5)" clip-path="url(#clip-path)">
      <g id="Ellipse_219" data-name="Ellipse 219" transform="translate(0 3)" fill="#032f55" stroke="#032f55" stroke-width="1">
        <ellipse cx="112" cy="112" rx="112" ry="112" stroke="none"/>
        <ellipse cx="112" cy="112" rx="111.5" ry="111.5" fill="none"/>
      </g>
    </g>
    <g id="Ellipse_217" data-name="Ellipse 217" transform="translate(30 39)" fill="#e1ebf5" stroke="#f8f8f9" stroke-width="5">
      <ellipse cx="82" cy="82" rx="82" ry="82" stroke="none"/>
      <ellipse cx="82" cy="82" rx="79.5" ry="79.5" fill="none"/>
    </g>
    <g id="Group_1903" data-name="Group 1903" transform="translate(111.825 0)">
      <path id="Path_13718" data-name="Path 13718" d="M-7521.709,7203h552.757" transform="translate(7521.709 -7193.853)" fill="none" stroke="#032f55" stroke-width="1"/>
      <g id="Ellipse_220" data-name="Ellipse 220" transform="translate(551.919 0)" fill="#f8f8f9" stroke="#032f55" stroke-width="1">
        <ellipse cx="9" cy="9" rx="9" ry="9" stroke="none"/>
        <ellipse cx="9" cy="9" rx="8.5" ry="8.5" fill="none"/>
      </g>
    </g>
  </g>
  <path id="Path_13718-2" data-name="Path 13718" d="M-7521.71,7203h552.7" transform="translate(7633.71 -6970)" fill="none" stroke="#032f55" stroke-width="1"/>
</svg>
