<svg xmlns="http://www.w3.org/2000/svg" width="167.871" height="205.267" viewBox="0 0 167.871 205.267">
  <g id="Group_1945" data-name="Group 1945" transform="translate(-3526.999 -12429)">
    <g id="_f29c1fff" data-name="#f29c1fff" transform="translate(3526.999 12529.919)">
      <path id="Path_13576" data-name="Path 13576" d="M6.167,173.851c1.536-1.218,3.083-2.421,4.607-3.651q.018,12.2.006,24.4c-3.642-3.028-7.208-6.148-10.78-9.259v-1.911a11.094,11.094,0,0,1,2.033-5.758A19.38,19.38,0,0,1,6.167,173.851Z" transform="translate(0 -170.2)" fill="#032f55"/>
      <path id="Path_13577" data-name="Path 13577" d="M476.693,170.21c2.274,1.792,4.552,3.581,6.808,5.394a10.963,10.963,0,0,1,3.966,8.069v1.676q-5.335,4.7-10.777,9.281Q476.686,182.417,476.693,170.21Z" transform="translate(-331.16 -170.207)" fill="#032f55"/>
    </g>
    <g id="document" transform="translate(3534.706 12429)">
      <path id="Path_13762" data-name="Path 13762" d="M371.168,195.227H357.544L352,189.683,352.082,40l43.649,7.716a3.465,3.465,0,0,1,2.812,4l-23.96,140.633A3.465,3.465,0,0,1,371.168,195.227Z" transform="translate(-238.431 -34.327)" fill="#b8d3e9"/>
      <path id="Path_13763" data-name="Path 13763" d="M352.082,40,352,189.683l5.544,5.544h5.544V41.946Z" transform="translate(-238.431 -34.327)" fill="#9dbdd6"/>
      <g id="Group_1944" data-name="Group 1944" transform="translate(0 0)">
        <rect id="Rectangle_3086" data-name="Rectangle 3086" width="118.913" height="161.029" rx="10" transform="translate(0 0)" fill="#4594e1"/>
        <rect id="Rectangle_3087" data-name="Rectangle 3087" width="27.87" height="27.87" rx="13.935" transform="translate(13.626 80.514)" fill="#fcfeff"/>
        <rect id="Rectangle_3088" data-name="Rectangle 3088" width="27.87" height="27.87" rx="13.935" transform="translate(13.626 122.01)" fill="#fcfeff"/>
        <g id="Group_1942" data-name="Group 1942" transform="translate(20.136 78.71)">
          <path id="Path_13764" data-name="Path 13764" d="M92.619,274.772a2.772,2.772,0,0,1-1.96-.812l-8.316-8.316,3.92-3.92,6.2,6.2,14.684-17.131,4.209,3.608L94.723,273.8a2.772,2.772,0,0,1-2,.966C92.69,274.772,92.653,274.772,92.619,274.772Z" transform="translate(-82.343 -250.793)" fill="#92c4f5"/>
          <path id="Path_13765" data-name="Path 13765" d="M92.619,394.772a2.772,2.772,0,0,1-1.96-.812l-8.316-8.316,3.92-3.92,6.2,6.2,14.684-17.131,4.209,3.608L94.723,393.8a2.772,2.772,0,0,1-2,.966C92.69,394.772,92.653,394.772,92.619,394.772Z" transform="translate(-82.343 -329.214)" fill="#92c4f5"/>
          <g id="Group_1941" data-name="Group 1941" transform="translate(35.223 40.611)">
            <path id="Path_13766" data-name="Path 13766" d="M184,368h41.579v5.544H184Z" transform="translate(-184 -368)" fill="#fcfeff"/>
            <path id="Path_13767" data-name="Path 13767" d="M184,408h13.86v5.544H184Z" transform="translate(-184 -394.14)" fill="#fcfeff"/>
          </g>
        </g>
        <g id="Group_1943" data-name="Group 1943" transform="translate(11.008 8.445)">
          <path id="Path_13768" data-name="Path 13768" d="M240,408h22.175v5.544H240Z" transform="translate(-176.246 -283.264)" fill="#fcfeff"/>
          <path id="Path_13769" data-name="Path 13769" d="M184,248h41.579v5.544H184Z" transform="translate(-139.649 -178.702)" fill="#fcfeff"/>
          <path id="Path_13770" data-name="Path 13770" d="M184,288h13.86v5.544H184Z" transform="translate(-139.649 -204.843)" fill="#fcfeff"/>
          <path id="Path_13771" data-name="Path 13771" d="M240,288h22.175v5.544H240Z" transform="translate(-176.246 -204.843)" fill="#fcfeff"/>
          <path id="Path_13772" data-name="Path 13772" d="M152.913,56,128,67.109l2.077,13.184a42.611,42.611,0,0,0,16.815,26.717l6.043,4.451,5.757-4.185A42.6,42.6,0,0,0,175.727,80.4l2.1-13.293Zm-.844,35.244a2.772,2.772,0,0,1-3.92,0l-8.316-8.316,3.92-3.921,6.356,6.356,14.671-14.671,3.92,3.92Z" transform="translate(-103.053 -53.228)" fill="#fcfeff"/>
          <path id="Path_13773" data-name="Path 13773" d="M56,48H72.631v5.544H56Z" transform="translate(-56 -48)" fill="#fcfeff"/>
          <path id="Path_13774" data-name="Path 13774" d="M56,80H67.088v5.544H56Z" transform="translate(-56 -68.912)" fill="#fcfeff"/>
          <path id="Path_13775" data-name="Path 13775" d="M296,48h5.544v5.544H296Z" transform="translate(-212.843 -48)" fill="#fcfeff"/>
          <path id="Path_13776" data-name="Path 13776" d="M328,48h5.544v5.544H328Z" transform="translate(-233.755 -48)" fill="#fcfeff"/>
        </g>
      </g>
    </g>
    <g id="_f0c419ff" data-name="#f0c419ff" transform="translate(3526.999 12545.063)">
      <path id="Path_13578" data-name="Path 13578" d="M0,219.8c3.572,3.111,7.138,6.231,10.78,9.259,14.48,12.608,29.088,25.076,43.607,37.642-5.636,4.192-11.106,8.606-16.678,12.883-1.16.855-2.125,1.939-3.309,2.763-10.255,8-20.567,15.927-30.782,23.974A10.947,10.947,0,0,1,0,299.443Z" transform="translate(0 -219.8)" fill="#10416b"/>
      <path id="Path_13579" data-name="Path 13579" d="M377.5,229.081q5.436-4.584,10.777-9.281v79.65a11.013,11.013,0,0,1-3.569,6.832c-9.705-7.644-19.5-15.173-29.244-22.777-2.036-1.615-4.164-3.12-6.087-4.872-4-3.154-8.041-6.258-12.059-9.391-1.145-.843-2.2-1.8-3.413-2.549C348.423,254.145,363.006,241.668,377.5,229.081Z" transform="translate(-231.965 -219.8)" fill="#10416b"/>
    </g>
    <g id="_f3d55bff" data-name="#f3d55bff" transform="translate(3530.616 12574.986)">
      <path id="Path_13580" data-name="Path 13580" d="M82.268,319.582a6.073,6.073,0,0,1,4.436-1.743c1.688.037,3.065,1.105,4.311,2.128,6.393,4.927,12.721,9.949,19.154,14.822,1.212.745,2.268,1.707,3.413,2.549,4.018,3.132,8.057,6.237,12.059,9.391,1.923,1.752,4.051,3.257,6.087,4.872,9.739,7.6,19.538,15.133,29.244,22.777a11.19,11.19,0,0,1-6.014,2.723H17.715a11.364,11.364,0,0,1-5.865-2.683c10.215-8.047,20.528-15.973,30.782-23.974,1.185-.824,2.149-1.908,3.309-2.763,5.571-4.277,11.042-8.692,16.678-12.883C69.211,329.785,75.71,324.644,82.268,319.582Z" transform="translate(-11.85 -317.821)" fill="#1e5482"/>
    </g>
  </g>
</svg>
