<svg xmlns="http://www.w3.org/2000/svg" width="143.054" height="123.703" viewBox="0 0 143.054 123.703">
  <g id="Group_1838" data-name="Group 1838" transform="translate(-432.679 -1168.033)">
    <path id="Path_8827" data-name="Path 8827" d="M0-13.221,27.443-4.366c25.286,0,76.877-24.326,94.634-8.855,21.094,18.378,5.992,79.193,5.992,109.481H15.246A15.246,15.246,0,0,1,0,81.013Z" transform="translate(433 1194.74)" fill="#e1ebf5"/>
    <g id="Path_8828" data-name="Path 8828" transform="translate(442.695 1186.403)" fill="none">
      <path d="M-10.017-13.221l37.46,8.855c25.286,0,76.877-24.326,94.634-8.855,21.094,18.378,5.249,88.266,5.249,118.554H13.105c-4.126,0-11.267.166-16.185-3.237C-7.7,98.9-10.017,92.054-10.017,87.76Z" stroke="none"/>
      <path d="M 104.1611328125 -17.37010955810547 C 92.132568359375 -17.37002563476562 77.10194396972656 -13.57252502441406 62.56620788574219 -9.90008544921875 C 49.26676940917969 -6.539985656738281 36.70491027832031 -3.366226196289062 27.44346618652344 -3.366226196289062 L 27.32688903808594 -3.366226196289062 L -9.016738891601562 -11.95753479003906 L -9.016738891601562 87.75977325439453 C -9.016738891601562 89.88743591308594 -8.399078369140625 92.57169342041016 -7.364471435546875 94.94015502929688 C -6.514312744140625 96.88639068603516 -4.982269287109375 99.56487274169922 -2.511245727539062 101.2728500366211 C -0.64776611328125 102.5621109008789 1.70672607421875 103.4179534912109 4.686782836914062 103.8892517089844 C 7.154510498046875 104.2795333862305 9.63006591796875 104.3333282470703 11.93764495849609 104.3333282470703 C 12.34799194335938 104.3333282470703 12.7386474609375 104.33203125 13.10511016845703 104.33203125 L 126.3319778442383 104.33203125 C 126.4209823608398 96.18084716796875 127.5615386962891 85.27185821533203 128.7662353515625 73.75001525878906 C 130.4708709716797 57.44683074951172 132.4029235839844 38.96839141845703 131.9776458740234 23.04801177978516 C 131.7472076416016 14.42179107666016 130.8673706054688 7.433433532714844 129.287841796875 1.68359375 C 128.4314422607422 -1.433868408203125 127.3551712036133 -4.186729431152344 126.0889282226562 -6.498489379882812 C 124.766845703125 -8.912185668945312 123.1961517333984 -10.92044830322266 121.4204864501953 -12.46750640869141 C 119.4814300537109 -14.15694427490234 116.9907302856445 -15.42301177978516 114.0175704956055 -16.23052978515625 C 111.2334060668945 -16.98672485351562 107.9172286987305 -17.37014770507812 104.1611328125 -17.37010955810547 M 104.1611328125 -18.37010955810547 C 111.5398101806641 -18.37016296386719 117.7931900024414 -16.95415496826172 122.077392578125 -13.22148895263672 C 143.1710052490234 5.15643310546875 127.3264083862305 75.04407501220703 127.3264083862305 105.33203125 L 13.10511016845703 105.33203125 C 8.979232788085938 105.3320236206055 1.838043212890625 105.497932434082 -3.080215454101562 102.09521484375 C -7.69989013671875 98.90206909179688 -10.01673889160156 92.05413055419922 -10.01673889160156 87.75977325439453 L -10.01673889160156 -13.22148895263672 L 27.44346618652344 -4.366226196289062 C 46.62886047363281 -4.366226196289062 80.95741271972656 -18.36995697021484 104.1611328125 -18.37010955810547 Z" stroke="none" fill="#032f55"/>
    </g>
  </g>
</svg>
