<svg xmlns="http://www.w3.org/2000/svg" width="327" height="320" viewBox="0 0 327 320">
  <g id="Group_1848" data-name="Group 1848" transform="translate(-626 -449)">
    <circle id="Ellipse_165" data-name="Ellipse 165" cx="153" cy="153" r="153" transform="translate(647 463)" fill="#e1ebf5"/>
    <circle id="Ellipse_168" data-name="Ellipse 168" cx="107" cy="107" r="107" transform="translate(693 509)" fill="#cde1f5"/>
    <g id="Group_1845" data-name="Group 1845" transform="translate(24.39 14.39)">
      <g id="email_2_" data-name="email (2)" transform="translate(702.609 519.748)">
        <g id="_ecf0f1ff" data-name="#ecf0f1ff" transform="translate(10.063)">
          <path id="Path_13573" data-name="Path 13573" d="M39.91,0H156.34a5.163,5.163,0,0,1,4.819,5.695q0,21.421.006,42.842-.017,11.4,0,22.81c-13.534,11.757-27.156,23.412-40.721,35.132-6.008-4.551-11.92-9.242-17.891-13.845a6.85,6.85,0,0,0-4.026-1.988,5.672,5.672,0,0,0-4.143,1.628c-6.125,4.728-12.2,9.53-18.353,14.212C62.466,94.75,48.821,83.1,35.3,71.327q0-11.395-.006-22.793c.017-14.56-.006-29.118.014-43.678A5.107,5.107,0,0,1,39.91,0M96.055,10.14a35.225,35.225,0,1,0,20.928,5.332A35.312,35.312,0,0,0,96.055,10.14Z" transform="translate(-35.29)" fill="#f8f8f9"/>
          <path id="Path_13574" data-name="Path 13574" d="M213.406,107.294a5.032,5.032,0,0,1,8.58,2.469,5.137,5.137,0,0,1-1.6,4.788Q208.41,126.532,196.43,138.51a8.85,8.85,0,0,1-2.5,2.047,5.044,5.044,0,0,1-5.555-.907q-5.082-5.069-10.155-10.149a5.029,5.029,0,0,1,6.83-7.369c2.3,2.2,4.5,4.517,6.79,6.724Q202.617,118.07,213.406,107.294Z" transform="translate(-136.438 -75.576)" fill="#f8f8f9"/>
        </g>
        <g id="_4fba6fff" data-name="#4fba6fff" transform="translate(37.762 10.072)">
          <path id="Path_13575" data-name="Path 13575" d="M165.489,35.388a35.226,35.226,0,1,1-27.458,16.094,35.123,35.123,0,0,1,27.458-16.094m16.2,21.578Q170.917,67.754,160.128,78.53c-2.293-2.207-4.486-4.523-6.79-6.724a5.029,5.029,0,0,0-6.83,7.369q5.077,5.069,10.155,10.149a5.044,5.044,0,0,0,5.555.907,8.85,8.85,0,0,0,2.5-2.047Q176.693,76.2,188.672,64.224a5.137,5.137,0,0,0,1.6-4.788,5.032,5.032,0,0,0-8.58-2.469Z" transform="translate(-132.422 -35.32)" fill="#529ae4"/>
        </g>
        <g id="_f29c1fff" data-name="#f29c1fff" transform="translate(0 48.534)">
          <path id="Path_13576" data-name="Path 13576" d="M5.76,173.611c1.434-1.138,2.88-2.261,4.3-3.411q.017,11.395.006,22.793c-3.4-2.829-6.733-5.743-10.069-8.649v-1.785a10.362,10.362,0,0,1,1.9-5.378A18.1,18.1,0,0,1,5.76,173.611Z" transform="translate(0 -170.2)" fill="#032f55"/>
          <path id="Path_13577" data-name="Path 13577" d="M476.693,170.21c2.124,1.674,4.252,3.345,6.359,5.039a10.24,10.24,0,0,1,3.7,7.537v1.566q-4.983,4.389-10.066,8.669Q476.686,181.612,476.693,170.21Z" transform="translate(-340.754 -170.207)" fill="#032f55"/>
        </g>
        <g id="_f0c419ff" data-name="#f0c419ff" transform="translate(0 62.678)">
          <path id="Path_13578" data-name="Path 13578" d="M0,219.8c3.336,2.906,6.667,5.82,10.069,8.649,13.525,11.777,27.17,23.423,40.732,35.16-5.264,3.915-10.374,8.039-15.578,12.034-1.084.8-1.985,1.811-3.091,2.581C22.553,285.7,12.921,293.1,3.379,300.617A10.226,10.226,0,0,1,0,294.193Z" transform="translate(0 -219.8)" fill="#10416b"/>
          <path id="Path_13579" data-name="Path 13579" d="M374.621,228.469q5.077-4.282,10.066-8.669v74.4a10.287,10.287,0,0,1-3.333,6.382c-9.065-7.14-18.219-14.172-27.315-21.276-1.9-1.508-3.89-2.914-5.686-4.551-3.738-2.946-7.511-5.846-11.264-8.772-1.069-.787-2.056-1.685-3.188-2.381C347.465,251.881,361.087,240.226,374.621,228.469Z" transform="translate(-238.685 -219.8)" fill="#10416b"/>
        </g>
        <g id="_f3d55bff" data-name="#f3d55bff" transform="translate(3.379 90.63)">
          <path id="Path_13580" data-name="Path 13580" d="M77.625,319.466a5.672,5.672,0,0,1,4.143-1.628,6.85,6.85,0,0,1,4.026,1.988c5.971,4.6,11.883,9.293,17.891,13.845,1.132.7,2.119,1.594,3.188,2.381,3.753,2.926,7.525,5.826,11.264,8.772,1.8,1.637,3.784,3.043,5.686,4.551,9.1,7.1,18.25,14.135,27.315,21.276a10.452,10.452,0,0,1-5.618,2.544H17.328a10.615,10.615,0,0,1-5.478-2.507c9.541-7.517,19.174-14.92,28.753-22.394,1.106-.77,2.008-1.782,3.091-2.581,5.2-4,10.314-8.118,15.578-12.034C65.429,329,71.5,324.194,77.625,319.466Z" transform="translate(-11.85 -317.821)" fill="#1e5482"/>
        </g>
      </g>
      <g id="Ellipse_164" data-name="Ellipse 164" transform="translate(737.61 533.61)" fill="none" stroke="#032f55" stroke-width="1">
        <ellipse cx="35" cy="34.5" rx="35" ry="34.5" stroke="none"/>
        <ellipse cx="35" cy="34.5" rx="34.5" ry="34" fill="none"/>
      </g>
    </g>
    <g id="send" transform="translate(885.374 565.494)">
      <g id="_7d5ff2ff" data-name="#7d5ff2ff" transform="translate(0 0.01)">
        <path id="Path_13581" data-name="Path 13581" d="M0,26.714Q30.532,13.37,61.056.01c.332.322.647.661.99.971Q46.227,16.805,30.4,32.625c-2.647,2.628-5.256,5.294-7.925,7.9C15,36.753,7.487,33.037,0,29.277Z" transform="translate(0 -0.01)" fill="#529ae4"/>
      </g>
      <g id="_703ec7ff" data-name="#703ec7ff" transform="translate(22.477 0.981)">
        <path id="Path_13582" data-name="Path 13582" d="M222.249,7.9c.329.3.635.624.951.938v.1Q217.3,22.4,211.426,35.864a11.934,11.934,0,0,0-7.391,2.583,11.807,11.807,0,0,0-1.307,17.271q-3.09,7.111-6.21,14.208H193.91q-5.631-11.232-11.23-22.481c2.669-2.606,5.278-5.272,7.925-7.9Q206.429,23.723,222.249,7.9Z" transform="translate(-182.68 -7.9)" fill="#347fcc"/>
      </g>
      <g id="_8de563ff" data-name="#8de563ff" transform="translate(39.371 28.937)">
        <path id="Path_13583" data-name="Path 13583" d="M324.443,237.7a11.934,11.934,0,0,1,7.391-2.583,6.5,6.5,0,0,1,1.32.076,10.914,10.914,0,0,0-1.36-.043c.017,3.664-.027,7.331.022,10.995q-.711.746-1.454,1.456-1.192-1.2-2.393-2.393c-.863.885-1.773,1.723-2.6,2.637q2.5,2.481,4.987,4.982c.507-.436.945-.944,1.436-1.4.016,2.445-.009,4.89.012,7.335a11.928,11.928,0,0,1-8.667-3.793,11.807,11.807,0,0,1,1.307-17.271Z" transform="translate(-319.981 -235.106)" fill="#1e5482"/>
      </g>
      <g id="_25b895ff" data-name="#25b895ff" transform="translate(51.18 28.969)">
        <path id="Path_13584" data-name="Path 13584" d="M415.964,235.379a10.915,10.915,0,0,1,1.36.043,11.783,11.783,0,0,1,8.185,4.753,11.977,11.977,0,0,1,2.269,6.136v1.548a11.824,11.824,0,0,1-11.8,11.134c-.021-2.445,0-4.89-.012-7.335,2.158-2.152,4.321-4.3,6.461-6.472-.874-.879-1.743-1.762-2.632-2.624-1.267,1.271-2.546,2.531-3.8,3.812C415.937,242.71,415.981,239.043,415.964,235.379Z" transform="translate(-415.96 -235.371)" fill="#10416b"/>
      </g>
      <g id="_f0f0f2ff" data-name="#f0f0f2ff" transform="translate(44.758 36.161)">
        <path id="Path_13585" data-name="Path 13585" d="M370.209,297.632c1.258-1.281,2.536-2.541,3.8-3.812.888.863,1.758,1.746,2.632,2.624-2.14,2.17-4.3,4.32-6.461,6.472-.491.453-.929.961-1.436,1.4q-2.482-2.5-4.987-4.982c.828-.914,1.739-1.752,2.6-2.637q1.2,1.189,2.393,2.393Q369.5,298.377,370.209,297.632Z" transform="translate(-363.76 -293.82)" fill="#f0f0f2"/>
      </g>
    </g>
    <g id="Group_1846" data-name="Group 1846" transform="translate(446.247 -931.822)">
      <g id="Group_1606" data-name="Group 1606" transform="translate(184.486 1539.709)">
        <ellipse id="Ellipse_48" data-name="Ellipse 48" cx="19" cy="20" rx="19" ry="20" transform="translate(0.267 0.114)" fill="#4594e1"/>
      </g>
      <g id="Group_1607" data-name="Group 1607" transform="translate(179.518 1542.193)">
        <g id="Ellipse_48-2" data-name="Ellipse 48" transform="translate(0.235 -0.37)" fill="none" stroke="#10416b" stroke-width="1">
          <ellipse cx="19" cy="20" rx="19" ry="20" stroke="none"/>
          <ellipse cx="19" cy="20" rx="18.5" ry="19.5" fill="none"/>
        </g>
      </g>
    </g>
    <circle id="Ellipse_167" data-name="Ellipse 167" cx="7" cy="7" r="7" transform="translate(700 705)" fill="#fff"/>
    <circle id="Ellipse_171" data-name="Ellipse 171" cx="10" cy="10" r="10" transform="translate(893 633)" fill="#fff"/>
    <circle id="Ellipse_172" data-name="Ellipse 172" cx="14" cy="14" r="14" transform="translate(772 449)" fill="#fff"/>
    <g id="Ellipse_173" data-name="Ellipse 173" transform="translate(887 489)" fill="none" stroke="#529ae4" stroke-width="2">
      <circle cx="8" cy="8" r="8" stroke="none"/>
      <circle cx="8" cy="8" r="7" fill="none"/>
    </g>
    <circle id="Ellipse_169" data-name="Ellipse 169" cx="7" cy="7" r="7" transform="translate(830 509)" fill="#529ae4"/>
    <circle id="Ellipse_170" data-name="Ellipse 170" cx="8" cy="8" r="8" transform="translate(917 696)" fill="#10416b"/>
    <path id="Icon_material-message" data-name="Icon material-message" d="M35.632,3H6.626A3.5,3.5,0,0,0,3.018,6.369L3,36.693l7.251-6.739h25.38a3.515,3.515,0,0,0,3.626-3.369V6.369A3.515,3.515,0,0,0,35.632,3ZM32.006,23.216H10.251V19.847H32.006Zm0-5.054H10.251V14.793H32.006Zm0-5.054H10.251V9.739H32.006Z" transform="translate(699.609 525.876)" fill="#032f55"/>
    <circle id="Ellipse_174" data-name="Ellipse 174" cx="20" cy="20" r="20" transform="translate(736 503)" fill="#529ae4"/>
    <path id="Icon_awesome-user" data-name="Icon awesome-user" d="M7.227,8.541a4.2,4.2,0,0,0,4.13-4.271A4.2,4.2,0,0,0,7.227,0,4.2,4.2,0,0,0,3.1,4.271,4.2,4.2,0,0,0,7.227,8.541Zm2.891,1.068H9.579a5.449,5.449,0,0,1-4.7,0H4.336A4.413,4.413,0,0,0,0,14.093v1.388a1.576,1.576,0,0,0,1.549,1.6H12.906a1.576,1.576,0,0,0,1.549-1.6V14.093A4.413,4.413,0,0,0,10.118,9.609Z" transform="translate(748.273 513.959)" fill="#f8f8f9"/>
  </g>
</svg>
