<svg xmlns="http://www.w3.org/2000/svg" width="13.036" height="13.035" viewBox="0 0 13.036 13.035">
  <path id="Icon_ionic-ios-call" data-name="Icon ionic-ios-call" d="M17.149,14.709a10.949,10.949,0,0,0-2.287-1.53c-.685-.329-.937-.322-1.422.027-.4.292-.665.563-1.13.462a6.741,6.741,0,0,1-2.27-1.68,6.693,6.693,0,0,1-1.68-2.27c-.1-.468.173-.726.462-1.13.35-.485.36-.736.027-1.422a10.733,10.733,0,0,0-1.53-2.287c-.5-.5-.611-.39-.886-.292a5.04,5.04,0,0,0-.811.431,2.447,2.447,0,0,0-.974,1.028c-.193.417-.417,1.195.723,3.224a17.989,17.989,0,0,0,3.163,4.218h0l0,0,0,0h0a18.059,18.059,0,0,0,4.218,3.163c2.029,1.14,2.806.916,3.224.723a2.4,2.4,0,0,0,1.028-.974,5.04,5.04,0,0,0,.431-.811C17.539,15.32,17.651,15.208,17.149,14.709Z" transform="translate(-4.49 -4.503)" fill="#707070"/>
</svg>
