<svg xmlns="http://www.w3.org/2000/svg" width="16.057" height="14.451" viewBox="0 0 16.057 14.451">
  <g id="Icon_material-camera-alt" data-name="Icon material-camera-alt" transform="translate(-3 -3)">
    <path id="Path_8829" data-name="Path 8829" d="M18.338,15.769A2.569,2.569,0,1,1,15.769,13.2,2.569,2.569,0,0,1,18.338,15.769Z" transform="translate(-4.741 -4.741)" fill="#032f55"/>
    <path id="Path_8830" data-name="Path 8830" d="M8.62,3,7.151,4.606H4.606A1.61,1.61,0,0,0,3,6.211v9.634a1.61,1.61,0,0,0,1.606,1.606H17.451a1.61,1.61,0,0,0,1.606-1.606V6.211a1.61,1.61,0,0,0-1.606-1.606H14.906L13.437,3Zm2.408,12.042a4.014,4.014,0,1,1,4.014-4.014A4.016,4.016,0,0,1,11.028,15.042Z" transform="translate(0 0)" fill="#032f55"/>
  </g>
</svg>
