<svg xmlns="http://www.w3.org/2000/svg" width="12" height="8.308" viewBox="0 0 12 8.308">
  <g id="Icon_ionic-ios-mail" data-name="Icon ionic-ios-mail" transform="translate(-3.375 -7.875)">
    <path id="Path_8557" data-name="Path 8557" d="M15.277,10.332l-3.1,3.162a.056.056,0,0,0,0,.081l2.172,2.313a.374.374,0,0,1,0,.531.376.376,0,0,1-.531,0l-2.163-2.3a.059.059,0,0,0-.084,0l-.528.537a2.323,2.323,0,0,1-1.656.7,2.369,2.369,0,0,1-1.69-.718l-.508-.516a.059.059,0,0,0-.084,0l-2.163,2.3a.376.376,0,0,1-.531,0,.374.374,0,0,1,0-.531L6.58,13.574a.061.061,0,0,0,0-.081L3.473,10.332a.057.057,0,0,0-.1.04V16.7a.926.926,0,0,0,.923.923H14.452a.926.926,0,0,0,.923-.923V10.372A.058.058,0,0,0,15.277,10.332Z" transform="translate(0 -1.438)" fill="#707070"/>
    <path id="Path_8558" data-name="Path 8558" d="M9.877,13.157A1.568,1.568,0,0,0,11,12.684l4.526-4.607a.907.907,0,0,0-.571-.2H4.8a.9.9,0,0,0-.571.2l4.526,4.607A1.568,1.568,0,0,0,9.877,13.157Z" transform="translate(-0.502)" fill="#707070"/>
  </g>
</svg>
