<svg xmlns="http://www.w3.org/2000/svg" width="76.832" height="92.208" viewBox="0 0 76.832 92.208">
  <g id="icons" transform="translate(-2 0.002)">
    <path id="password" d="M71.149,38.423H25.05V27.666c0-8.067,5.762-15.366,13.83-16.135A15.565,15.565,0,0,1,55.783,26.9h0a3.629,3.629,0,0,0,3.842,3.842h3.842A3.629,3.629,0,0,0,67.307,26.9h0A26.815,26.815,0,0,0,41.184.006,27.138,27.138,0,0,0,13.525,26.9V38.423H9.683A7.706,7.706,0,0,0,2,46.106V73A19.022,19.022,0,0,0,21.208,92.205H59.624A19.021,19.021,0,0,0,78.832,73V46.106A7.706,7.706,0,0,0,71.149,38.423ZM44.258,68V73a4.131,4.131,0,0,1-3.842,3.842A4.131,4.131,0,0,1,36.575,73V68a7.436,7.436,0,0,1-3.842-6.531,7.683,7.683,0,1,1,15.366,0A7.436,7.436,0,0,1,44.258,68Z" transform="translate(0 0)" fill="#529ae4"/>
  </g>
</svg>
