<svg xmlns="http://www.w3.org/2000/svg" width="12.381" height="14.858" viewBox="0 0 12.381 14.858">
  <g id="icons" transform="translate(-2 0.002)">
    <path id="password" d="M13.143,6.189H5.714V4.456a2.559,2.559,0,0,1,2.229-2.6,2.508,2.508,0,0,1,2.724,2.476h0a.585.585,0,0,0,.619.619H11.9a.585.585,0,0,0,.619-.619h0A4.321,4.321,0,0,0,8.314,0,4.373,4.373,0,0,0,3.857,4.332V6.189H3.238A1.242,1.242,0,0,0,2,7.428v4.333a3.065,3.065,0,0,0,3.1,3.1h6.19a3.065,3.065,0,0,0,3.1-3.1V7.428A1.242,1.242,0,0,0,13.143,6.189ZM8.809,10.956v.8a.666.666,0,0,1-.619.619.666.666,0,0,1-.619-.619v-.8A1.2,1.2,0,0,1,6.952,9.9a1.238,1.238,0,1,1,2.476,0A1.2,1.2,0,0,1,8.809,10.956Z" transform="translate(0 0)" fill="#707070"/>
  </g>
</svg>
