<svg xmlns="http://www.w3.org/2000/svg" width="18.414" height="22.099" viewBox="0 0 18.414 22.099">
  <g id="icons" transform="translate(-2 0.002)">
    <path id="password" d="M18.573,9.207H7.524V6.629a3.806,3.806,0,0,1,3.315-3.867A3.73,3.73,0,0,1,14.89,6.445h0a.87.87,0,0,0,.921.921h.921a.87.87,0,0,0,.921-.921h0A6.427,6.427,0,0,0,11.391,0,6.5,6.5,0,0,0,4.762,6.445V9.207H3.841A1.847,1.847,0,0,0,2,11.048v6.445a4.559,4.559,0,0,0,4.6,4.6h9.207a4.559,4.559,0,0,0,4.6-4.6V11.048A1.847,1.847,0,0,0,18.573,9.207ZM12.128,16.3v1.2a.99.99,0,0,1-.921.921.99.99,0,0,1-.921-.921V16.3a1.782,1.782,0,0,1-.921-1.565,1.841,1.841,0,1,1,3.683,0A1.782,1.782,0,0,1,12.128,16.3Z" transform="translate(0 0)" fill="#032f55"/>
  </g>
</svg>
