<svg xmlns="http://www.w3.org/2000/svg" width="11.941" height="15.922" viewBox="0 0 11.941 15.922">
  <path id="Icon_awesome-file-alt" data-name="Icon awesome-file-alt" d="M6.966,4.229V0H.746A.745.745,0,0,0,0,.746V15.176a.745.745,0,0,0,.746.746H11.2a.745.745,0,0,0,.746-.746V4.976H7.712A.749.749,0,0,1,6.966,4.229Zm1.99,7.339a.374.374,0,0,1-.373.373H3.359a.374.374,0,0,1-.373-.373v-.249a.374.374,0,0,1,.373-.373H8.583a.374.374,0,0,1,.373.373Zm0-1.99a.374.374,0,0,1-.373.373H3.359a.374.374,0,0,1-.373-.373V9.329a.374.374,0,0,1,.373-.373H8.583a.374.374,0,0,1,.373.373Zm0-2.239v.249a.374.374,0,0,1-.373.373H3.359a.374.374,0,0,1-.373-.373V7.339a.374.374,0,0,1,.373-.373H8.583A.374.374,0,0,1,8.956,7.339Zm2.985-3.548v.19H7.961V0h.19a.746.746,0,0,1,.529.218l3.044,3.048A.744.744,0,0,1,11.941,3.791Z" fill="#032f55"/>
</svg>
