<svg xmlns="http://www.w3.org/2000/svg" width="401.668" height="339.545" viewBox="0 0 401.668 339.545">
  <g id="_19_security_outline" data-name="#19_security_outline" transform="translate(-102.207 -68.477)">
    <rect id="Rectangle_3082" data-name="Rectangle 3082" width="384.631" height="262.113" rx="10.92" transform="translate(110.701 68.477)" fill="#529ae4"/>
    <path id="Path_13731" data-name="Path 13731" d="M292.949,251.3H170.02l12.823-56.368h97.262Z" transform="translate(71.542 135.639)" fill="#529ae4"/>
    <rect id="Rectangle_3083" data-name="Rectangle 3083" width="332.208" height="194.525" rx="10" transform="translate(136.922 90.301)" fill="#e1ebf5"/>
    <rect id="Rectangle_3084" data-name="Rectangle 3084" width="174.16" height="21.084" rx="5.13" transform="translate(215.957 386.937)" fill="#529ae4"/>
    <path id="Path_13735" data-name="Path 13735" d="M309.712,120.164c0,61.053-58.629,110.558-72.541,110.558s-72.541-49.5-72.541-110.558c0,0,32.469-23.694,72.541-23.694S309.712,120.164,309.712,120.164Z" transform="translate(65.856 31.766)" fill="#052f52"/>
    <path id="Path_13737" data-name="Path 13737" d="M205.165,171.334l-21.392-21.413a3.473,3.473,0,0,1,0-4.911l6.74-6.7a3.473,3.473,0,0,1,4.911,0l10.748,10.768a2.219,2.219,0,0,0,3.144,0l35.181-35.1a5.035,5.035,0,0,1,7.131,0l4.48,4.48a5.035,5.035,0,0,1,0,7.151l-45.682,45.7A3.781,3.781,0,0,1,205.165,171.334Z" transform="translate(84.977 48.677)" fill="#fff"/>
    <path id="Path_13738" data-name="Path 13738" d="M211,183.983a4.585,4.585,0,0,1-1.151-.164l-30.64-9.021a4.113,4.113,0,1,1,2.322-7.891l30.64,9.021A4.11,4.11,0,0,1,211,183.983Z" transform="translate(78.118 105.897)" fill="#093f68"/>
    <path id="Path_13739" data-name="Path 13739" d="M195.236,197.646a17.038,17.038,0,0,1-5.055-.76l-19.522-6.165A16.974,16.974,0,0,1,159.5,169.513l.493-1.582A16.954,16.954,0,0,1,181.2,156.772l19.522,6.062a16.933,16.933,0,0,1,11.159,21.207l-.493,1.582a16.974,16.974,0,0,1-16.152,11.919Zm-19.05-33.311a8.713,8.713,0,0,0-8.343,6.165l-.493,1.6a8.734,8.734,0,0,0,5.733,10.912l19.543,6.165h0a8.734,8.734,0,0,0,10.912-5.754l.493-1.582a8.734,8.734,0,0,0-5.754-10.912l-19.522-6.062A8.672,8.672,0,0,0,176.186,164.335Z" transform="translate(59.642 94.577)" fill="#093f68"/>
    <path id="Path_13740" data-name="Path 13740" d="M181.462,176.57a4.111,4.111,0,0,1-1.829-.432l-28.564-14.262a4.11,4.11,0,1,1,3.658-7.357l28.564,14.262a4.11,4.11,0,0,1-1.829,7.788Z" transform="translate(49.023 92.493)" fill="#093f68"/>
    <path id="Path_13741" data-name="Path 13741" d="M165.968,187.819a16.707,16.707,0,0,1-7.871-1.952h0l-18.084-9.535a16.954,16.954,0,0,1-7.09-22.892l.781-1.459a16.974,16.974,0,0,1,22.893-7.09l18.084,9.535a16.954,16.954,0,0,1,7.09,22.892l-.781,1.48A17,17,0,0,1,165.968,187.819Zm-4.11-9.227a8.734,8.734,0,0,0,11.775-3.637l.781-1.48a8.713,8.713,0,0,0-3.658-11.775l-18.084-9.535A8.734,8.734,0,0,0,140.9,155.8l-.781,1.48a8.734,8.734,0,0,0,3.637,11.775Z" transform="translate(30.343 80.793)" fill="#093f68"/>
    <path id="Path_13742" data-name="Path 13742" d="M155.982,165.459a4.109,4.109,0,0,1-1.829-.432l-28.564-14.22a4.11,4.11,0,1,1,3.658-7.357l28.564,14.22a4.109,4.109,0,0,1-1.829,7.788Z" transform="translate(22.142 80.815)" fill="#093f68"/>
    <path id="Path_13743" data-name="Path 13743" d="M141.289,177.1a16.81,16.81,0,0,1-9.967-3.267h0l-16.44-12.042a16.954,16.954,0,0,1-3.678-23.673l.986-1.356a16.913,16.913,0,0,1,23.653-3.678l16.44,12.042a16.974,16.974,0,0,1,3.7,23.673L155,170.159A16.933,16.933,0,0,1,141.289,177.1Zm-5.117-9.926a8.734,8.734,0,0,0,12.186-1.891l.986-1.356a8.734,8.734,0,0,0-1.911-12.186L130.993,139.7a8.713,8.713,0,0,0-12.166,1.891l-.986,1.356a8.734,8.734,0,0,0,1.891,12.186Z" transform="translate(6.052 66.95)" fill="#093f68"/>
    <path id="Path_13744" data-name="Path 13744" d="M132.072,156.345a4.11,4.11,0,0,1-2.713-1.027l-25.523-22.235a4.11,4.11,0,1,1,5.4-6.165L134.7,149.153a4.1,4.1,0,0,1-2.63,7.192Z" transform="translate(0 62.598)" fill="#093f68"/>
    <path id="Path_13745" data-name="Path 13745" d="M208.8,183.983a4.11,4.11,0,0,1-1.151-8.055l30.619-9.021a4.113,4.113,0,1,1,2.322,7.891l-30.619,9.021a4.607,4.607,0,0,1-1.171.164Z" transform="translate(108.118 105.897)" fill="#093f68"/>
    <path id="Path_13746" data-name="Path 13746" d="M232.3,197.6a16.933,16.933,0,0,1-16.152-11.919l-.493-1.582a16.933,16.933,0,0,1,11.159-21.207l19.522-6.062a16.912,16.912,0,0,1,21.207,11.158l.493,1.582a16.974,16.974,0,0,1-11.159,21.31l-19.522,6.165h0a17.138,17.138,0,0,1-5.055.555Zm3.822-4.685Zm15.227-28.626a8.567,8.567,0,0,0-2.569.39l-19.543,6.062A8.734,8.734,0,0,0,223.5,181.65l.493,1.582a8.734,8.734,0,0,0,10.912,5.754l19.522-6.165a8.734,8.734,0,0,0,5.754-10.912l-.493-1.6a8.734,8.734,0,0,0-8.343-6.021Z" transform="translate(118.877 94.627)" fill="#093f68"/>
    <path id="Path_13747" data-name="Path 13747" d="M237.348,176.543a4.11,4.11,0,0,1-1.849-7.788l28.564-14.262a4.113,4.113,0,1,1,3.678,7.357l-28.564,14.262A4.111,4.111,0,0,1,237.348,176.543Z" transform="translate(138.219 92.52)" fill="#093f68"/>
    <path id="Path_13748" data-name="Path 13748" d="M260.936,187.819a16.974,16.974,0,0,1-15-9.021l-.781-1.48a16.954,16.954,0,0,1,7.09-22.892l18.084-9.535a16.974,16.974,0,0,1,22.893,7.09l.781,1.459a16.954,16.954,0,0,1-7.09,22.893l-18.084,9.535h0A16.789,16.789,0,0,1,260.936,187.819Zm5.959-5.59Zm11.323-31.071a8.671,8.671,0,0,0-4.11,1.007L256,161.7a8.734,8.734,0,0,0-3.637,11.775l.781,1.48a8.734,8.734,0,0,0,11.775,3.637l18.084-9.535a8.713,8.713,0,0,0,3.658-11.775l-.781-1.48a8.734,8.734,0,0,0-7.665-4.644Z" transform="translate(148.744 80.793)" fill="#093f68"/>
    <path id="Path_13749" data-name="Path 13749" d="M262.821,165.459a4.115,4.115,0,0,1-1.849-7.788l28.585-14.22a4.11,4.11,0,1,1,3.658,7.357l-28.564,14.22A4.11,4.11,0,0,1,262.821,165.459Z" transform="translate(165.107 80.815)" fill="#093f68"/>
    <path id="Path_13750" data-name="Path 13750" d="M284.9,177.106a16.912,16.912,0,0,1-13.707-6.946l-.986-1.356a16.974,16.974,0,0,1,3.7-23.673l16.44-12.042a16.933,16.933,0,0,1,23.673,3.678l.986,1.356a16.974,16.974,0,0,1-3.7,23.673l-16.44,12.042h0A16.892,16.892,0,0,1,284.9,177.106Zm7.542-6.576Zm7.953-32.489a8.733,8.733,0,0,0-5.137,1.685l-16.44,12.042a8.734,8.734,0,0,0-1.911,12.186l.986,1.356a8.734,8.734,0,0,0,12.186,1.891l16.44-12.042a8.693,8.693,0,0,0,1.911-12.186l-.986-1.356A8.734,8.734,0,0,0,300.394,138.041Z" transform="translate(173.813 66.949)" fill="#093f68"/>
    <path id="Path_13751" data-name="Path 13751" d="M285.2,154.281a4.065,4.065,0,0,1-2.3-7.419l25.77-18.495a4.11,4.11,0,0,1,4.788,6.679l-25.749,18.495A4.111,4.111,0,0,1,285.2,154.281Z" transform="translate(188.78 64.662)" fill="#093f68"/>
    <path id="Path_13752" data-name="Path 13752" d="M230.284,211.14a4.11,4.11,0,0,1-4.11-4.11V188.371a14.57,14.57,0,1,0-29.119,0V207.03a4.11,4.11,0,0,1-8.22,0V188.371a22.79,22.79,0,1,1,45.559,0V207.03A4.11,4.11,0,0,1,230.284,211.14Z" transform="translate(91.381 103.955)" fill="#093f68"/>
    <rect id="Rectangle_3085" data-name="Rectangle 3085" width="67.26" height="61.855" rx="4.8" transform="translate(269.386 310.985)" fill="#052f52"/>
    <path id="Path_13753" data-name="Path 13753" d="M242.011,250.365H194.5a11.94,11.94,0,0,1-11.939-11.919V196.319A11.939,11.939,0,0,1,194.5,184.4h47.511a11.919,11.919,0,0,1,11.919,11.919v42.127a11.919,11.919,0,0,1-11.919,11.919ZM194.5,188.51a7.829,7.829,0,0,0-7.829,7.809v42.127a7.829,7.829,0,0,0,7.829,7.809h47.511a7.809,7.809,0,0,0,7.809-7.809V196.319a7.809,7.809,0,0,0-7.809-7.809Z" transform="translate(84.771 124.53)" fill="#093f68"/>
    <path id="Path_13754" data-name="Path 13754" d="M212.44,199.684a8.22,8.22,0,1,0-11.405,7.706v18.166H207.2V207.39A8.22,8.22,0,0,0,212.44,199.684Z" transform="translate(98.95 132.118)" fill="#e1ebf5"/>
    <path id="Path_13755" data-name="Path 13755" d="M208.3,228.69h-6.165a2.055,2.055,0,0,1-2.055-2.055V209.743a10.275,10.275,0,1,1,10.275,0v16.892A2.055,2.055,0,0,1,208.3,228.69Zm-4.11-4.11h2.055V208.469a2.055,2.055,0,0,1,1.274-1.911,6.165,6.165,0,1,0-4.665,0,2.055,2.055,0,0,1,1.295,1.911Z" transform="translate(97.832 131.039)" fill="#093f68"/>
    <path id="Path_13756" data-name="Path 13756" d="M450.01,92.92H120.9a2.055,2.055,0,0,1,0-4.11H450.01a2.055,2.055,0,1,1,0,4.11Z" transform="translate(17.559 23.685)" fill="#093f68"/>
    <circle id="Ellipse_228" data-name="Ellipse 228" cx="5.096" cy="5.096" r="5.096" transform="translate(149.766 97.555)" fill="rgba(9,63,104,0.44)"/>
    <circle id="Ellipse_229" data-name="Ellipse 229" cx="5.096" cy="5.096" r="5.096" transform="translate(169.576 97.555)" fill="#093f68"/>
    <circle id="Ellipse_230" data-name="Ellipse 230" cx="5.096" cy="5.096" r="5.096" transform="translate(189.386 97.555)" fill="#093f68"/>
  </g>
</svg>
